<?xml version="1.0" encoding="UTF-8"?>
<svg width="30px" height="30px" viewBox="0 0 30 30" version="1.1" xmlns="http://www.w3.org/2000/svg" xmlns:xlink="http://www.w3.org/1999/xlink">
    <!-- Generator: Sketch 50.2 (55047) - http://www.bohemiancoding.com/sketch -->
    <title>Icon / Like / Down</title>
    <desc>Created with Sketch.</desc>
    <defs>
        <path d="M23.4719421,12.4326889 C23.5412554,12.2516868 23.6069206,12.0068017 23.6251609,11.7228768 C23.6506974,11.2224593 23.523015,10.5197453 22.7970494,9.88091441 C22.8444742,9.55440084 22.8444742,9.036238 22.5489807,8.52162422 C22.1586373,7.84020459 21.396191,7.37882672 20.279882,7.14813779 C19.5320279,6.99197912 18.5506974,6.96003758 17.361427,7.04876409 C14.9646459,7.0026263 12.629882,7.29010021 12.4985515,7.30784551 L11.6412554,7.40721921 C11.3931867,7.2368643 11.090397,7.13749061 10.7657189,7.13749061 L8.540397,7.13749061 C7.7013412,7.13749061 7.02280043,7.80116493 7.02280043,8.61389979 L7.02280043,14.3811232 C7.02280043,15.1974071 7.70498927,15.8575324 8.540397,15.8575324 L10.7657189,15.8575324 C11.0283798,15.8575324 11.2728004,15.7936493 11.4880365,15.6800793 C11.6412554,16.0065929 11.8674356,16.3792443 12.2030579,16.7235031 C12.2212983,16.7412484 12.2395386,16.7589937 12.261427,16.77319 C13.4069206,17.6285136 14.756706,20.7090981 15.234603,21.9654656 C15.1871781,22.3558622 15.1397532,23.2005386 15.5410408,23.6583674 C15.7197961,23.8606639 15.9678648,23.9706848 16.245118,23.9706848 C16.5260193,23.9706848 17.4964056,23.9068017 18.101985,23.0940668 C18.6747318,22.3203716 18.7075644,21.1633779 18.1968348,19.6514781 C17.7663627,18.3809144 17.7262339,17.8166138 17.7408262,17.5894739 C17.9378219,17.6320626 18.1311695,17.6711023 18.317221,17.7030438 L18.3208691,17.7030438 C18.3537017,17.710142 19.1562768,17.8840459 20.1157189,17.9266347 C21.4800966,17.9905177 22.4687232,17.7598288 23.045118,17.245215 C23.840397,16.538952 23.7455472,15.6374906 23.5084227,15.0625428 C23.7127146,14.8034614 23.9607833,14.3811232 23.9826717,13.841666 C23.9972639,13.3518956 23.8294528,12.8798706 23.4719421,12.4326889 Z M10.7657189,14.9028351 L8.540397,14.9028351 C8.24490343,14.9028351 8.00777897,14.6685971 8.00777897,14.3846722 L8.00777897,8.61744885 C8.00777897,8.32997495 8.2485515,8.09928601 8.540397,8.09928601 L10.7657189,8.09928601 C11.0612124,8.09928601 11.2983369,8.33352401 11.2983369,8.61744885 L11.2983369,14.3846722 C11.2983369,14.6721461 11.0612124,14.9028351 10.7657189,14.9028351 Z M22.5015558,15.2470939 C22.5015558,15.250643 22.6292382,15.4458413 22.673015,15.7120209 C22.7277361,16.0420835 22.6328863,16.3153612 22.3775215,16.542501 C21.6807403,17.1600376 19.6743026,17.0180752 18.5543455,16.776739 C18.5397532,16.77319 18.5251609,16.7696409 18.5069206,16.7660919 C18.3062768,16.7306013 18.0910408,16.6880125 17.8721567,16.6418747 C17.6386803,16.5602463 17.3176502,16.5708935 17.0768777,16.7802881 C16.5916845,17.1990772 16.6464056,18.1502255 17.255633,19.9566973 C17.6569206,21.1420835 17.6715129,22.0364468 17.2994099,22.5368643 C16.985676,22.9592025 16.4676502,23.0124384 16.2706545,23.0159875 C16.1831009,22.8740251 16.1575644,22.3878038 16.2232296,21.9867599 C16.2341738,21.9086806 16.2268777,21.8270522 16.2013412,21.7489729 C16.1320279,21.5679708 14.5305258,17.302 12.8925429,16.0385344 C12.4657189,15.5878038 12.2796674,15.0589937 12.2140021,14.8212067 C12.257779,14.6827933 12.2833155,14.5337328 12.2833155,14.3811232 L12.2833155,8.61744885 C12.2833155,8.51097704 12.2723712,8.40450522 12.2504828,8.30513152 L12.6189378,8.2625428 L12.6225858,8.2625428 C12.6444742,8.25899374 15.019367,7.96087265 17.3650751,8.0105595 C17.3796674,8.0105595 17.3979077,8.0105595 17.4161481,8.0105595 C18.5215129,7.92538205 19.4152897,7.95022547 20.0755901,8.08863883 C20.8927575,8.25899374 21.4326717,8.55711482 21.6807403,8.97945303 C21.9397532,9.41598747 21.7974785,9.86671816 21.7865343,9.90930689 C21.7099249,10.1080543 21.7792382,10.324547 21.9543455,10.4523132 C23.0341738,11.2402046 22.5380365,12.1594113 22.4723712,12.2729812 C22.351985,12.4575324 22.3811695,12.6917704 22.5380365,12.8514781 C22.8517704,13.1708935 23.0049893,13.490309 22.9940451,13.8026263 C22.9794528,14.2675532 22.6109979,14.6153612 22.5854614,14.6366555 C22.4030579,14.7892651 22.3702253,15.0483466 22.5015558,15.2470939 Z" id="path-1"></path>
    </defs>
    <g id="Icon-/-Like-/-Down" stroke="none" stroke-width="1" fill="none" fill-rule="evenodd">
        <mask id="mask-2" fill="white">
            <use xlink:href="#path-1"></use>
        </mask>
        <use id="Shape" fill="#000000" fill-rule="nonzero" xlink:href="#path-1"></use>
        <g id="Color-/-Dark-4" mask="url(#mask-2)" fill="#55616E">
            <rect id="Rectangle" x="0" y="0" width="30" height="30"></rect>
        </g>
    </g>
</svg>