<?xml version="1.0" encoding="UTF-8"?>
<svg width="30px" height="30px" viewBox="0 0 30 30" version="1.1" xmlns="http://www.w3.org/2000/svg" xmlns:xlink="http://www.w3.org/1999/xlink">
    <!-- Generator: Sketch 50.2 (55047) - http://www.bohemiancoding.com/sketch -->
    <title>Icon / Like / Up</title>
    <desc>Created with Sketch.</desc>
    <defs>
        <path d="M22.5198124,17.5572982 C22.8571248,17.1129235 23.0188971,16.6365537 22.9982453,16.145964 C22.9775935,15.6056043 22.74354,15.1825596 22.5507901,14.9230448 C22.7745177,14.3471351 22.8605668,13.4406106 22.1136607,12.736721 C21.5663886,12.2212463 20.6370585,11.9901715 19.3497642,12.0541614 C18.4445279,12.0968214 17.687296,12.2710163 17.6563183,12.2781263 L17.6528763,12.2781263 C17.4807782,12.3101213 17.2983541,12.3492263 17.1124881,12.3918862 C17.0987202,12.1643664 17.1365818,11.5991217 17.5427335,10.3264325 C18.0246084,8.81200335 17.9970727,7.65307403 17.4532425,6.87808448 C16.8818766,6.06398996 15.9697563,6 15.7012832,6 C15.4431359,6 15.2056404,6.11020494 15.0369842,6.31283982 C14.6549263,6.77143455 14.6996718,7.61752405 14.7478593,8.00857382 C14.2935202,9.26704308 13.0199938,12.3527813 11.9426593,13.2095358 C11.9220075,13.2237558 11.9047977,13.2415307 11.8875878,13.2593057 C11.5709272,13.6041405 11.3575255,13.9774153 11.212963,14.3044751 C11.0098872,14.1907152 10.7792757,14.1267252 10.5314543,14.1267252 L8.43185672,14.1267252 C7.64020517,14.1267252 7,14.7915098 7,15.6056043 L7,21.382476 C7,22.2001255 7.64364713,22.8613551 8.43185672,22.8613551 L10.5314543,22.8613551 C10.8377891,22.8613551 11.123472,22.7618151 11.3575255,22.5911752 L12.1663869,22.6907152 C12.2902976,22.7084902 14.493154,22.996445 16.7545239,22.95023 C17.1641175,22.982225 17.5496174,23 17.9075816,23 C18.523693,23 19.0606393,22.95023 19.5080945,22.8506901 C20.5613353,22.6196152 21.2807056,22.1574655 21.6455537,21.4784609 C21.9243528,20.9594312 21.9243528,20.4439565 21.8796072,20.1168967 C22.5645579,19.4769971 22.6850266,18.7695525 22.6609329,18.2718528 C22.647165,17.983898 22.5852097,17.7386031 22.5198124,17.5572982 Z M8.43185672,21.9015056 C8.1530577,21.9015056 7.92933008,21.6668758 7.92933008,21.382476 L7.92933008,15.6020494 C7.92933008,15.3140945 8.15649966,15.0830197 8.43185672,15.0830197 L10.5314543,15.0830197 C10.8102533,15.0830197 11.033981,15.3176495 11.033981,15.6020494 L11.033981,21.378921 C11.033981,21.6668758 10.8068114,21.8979506 10.5314543,21.8979506 L8.43185672,21.8979506 L8.43185672,21.9015056 Z M21.6386698,17.1413634 C21.4941073,17.2977834 21.4665716,17.5359682 21.5767145,17.7208281 C21.5767145,17.7243831 21.717835,17.973233 21.7350448,18.3145128 C21.7591385,18.7802175 21.5422948,19.1925972 21.0879557,19.544542 C20.9261834,19.672522 20.8607861,19.8929318 20.9296254,20.0920117 C20.9296254,20.0955667 21.0776298,20.5648264 20.8366924,21.0092012 C20.6060808,21.4358009 20.0932283,21.7415307 19.3153446,21.9121706 C18.6923492,22.0508156 17.8456263,22.0757005 16.8061534,21.9903806 C16.7923855,21.9903806 16.7751757,21.9903806 16.7579659,21.9903806 C14.5447835,22.0401506 12.3075074,21.7415307 12.2834136,21.7379757 L12.2799717,21.7379757 L11.9323334,21.6953158 C11.9529852,21.5957758 11.963311,21.4891259 11.963311,21.382476 L11.963311,15.6020494 C11.963311,15.4491844 11.9392173,15.2998745 11.8979137,15.1612296 C11.9598691,14.9230448 12.1319672,14.3933501 12.5381189,13.9418653 C14.0835604,12.6762861 15.5945823,8.40673358 15.6599796,8.22187369 C15.6875153,8.14721874 15.6943992,8.06545379 15.6806314,7.98368883 C15.622118,7.58552907 15.6427698,7.09849435 15.7253769,6.95273944 C15.907801,6.95629444 16.4000017,7.00961941 16.6960105,7.43266416 C17.0470908,7.93391886 17.0333229,8.82977834 16.654707,10.0171476 C16.0764572,11.8266416 16.0282697,12.779381 16.4860508,13.1988708 C16.7132204,13.4086156 17.0161131,13.4192806 17.2363988,13.3375157 C17.4463585,13.2877457 17.6459924,13.2450857 17.8353004,13.2130908 C17.8490682,13.2095358 17.8662781,13.2059808 17.8800459,13.2024258 C18.9367286,12.9642409 20.8298084,12.818486 21.4872234,13.4370556 C22.0448215,13.9631953 21.6489957,14.6599749 21.6042502,14.7346299 C21.4768975,14.9337097 21.5147591,15.1932246 21.6868573,15.3531995 C21.6902993,15.3567545 22.0517054,15.7086993 22.0689152,16.181514 C22.0826831,16.4979088 21.9381206,16.8214136 21.6386698,17.1413634 Z" id="path-1"></path>
    </defs>
    <g id="Icon-/-Like-/-Up" stroke="none" stroke-width="1" fill="none" fill-rule="evenodd">
        <mask id="mask-2" fill="white">
            <use xlink:href="#path-1"></use>
        </mask>
        <use id="Shape" fill="#000000" fill-rule="nonzero" xlink:href="#path-1"></use>
        <g id="Color-/-Dark-4" mask="url(#mask-2)" fill="#55616E">
            <rect id="Rectangle" x="0" y="0" width="30" height="30"></rect>
        </g>
    </g>
</svg>