<?xml version="1.0" encoding="UTF-8"?>
<svg width="30px" height="30px" viewBox="0 0 30 30" version="1.1" xmlns="http://www.w3.org/2000/svg" xmlns:xlink="http://www.w3.org/1999/xlink">
    <!-- Generator: Sketch 50.2 (55047) - http://www.bohemiancoding.com/sketch -->
    <title>Icon / Alerts</title>
    <desc>Created with Sketch.</desc>
    <defs>
        <path d="M19.8262299,7.70449973 C19.8262299,7.00926901 19.530506,6.25481123 19.0728188,5.7824317 C18.8866147,5.59019366 18.9031334,5.29387093 19.1097507,5.12062554 C19.316368,4.94744261 19.6348554,4.96281166 19.8210595,5.15498723 C20.4455446,5.79967502 20.8334641,6.77660912 20.8334641,7.7045622 C20.8334641,8.64119941 20.4384269,9.62550566 19.8025264,10.2733797 C19.7032131,10.374528 19.5671022,10.4259456 19.4305212,10.4259456 C19.3091831,10.4259456 19.1876435,10.3854613 19.0910161,10.3033681 C18.8856747,10.1288732 18.8712376,9.83248799 19.0587846,9.64137452 C19.5249998,9.166371 19.8262299,8.40610297 19.8262299,7.70449973 Z M17.5635119,9.49955445 C17.3581705,9.32499706 17.3438677,9.02861186 17.531549,8.83749838 C17.7713379,8.59340543 17.9521029,8.10771855 17.9521029,7.70774847 C17.9521029,7.31121456 17.7746282,6.82890137 17.5392712,6.5858705 C17.3530671,6.39363246 17.3696529,6.09737221 17.5762702,5.92412682 C17.7828204,5.75081894 18.1013078,5.76625047 18.2875119,5.95855098 C18.7515782,6.43774038 18.9592699,7.18238945 18.9592699,7.70774847 C18.9592699,8.23804307 18.7476836,8.98843992 18.2750222,9.46969102 C18.1756417,9.57090181 18.039598,9.62219445 17.9030842,9.62219445 C17.7818132,9.62219445 17.6600721,9.58171013 17.5635119,9.49955445 Z M10.4821857,10.4259456 C10.3445303,10.4259456 10.2074122,10.3737783 10.1079646,10.2710681 C9.48341227,9.62625537 9.09549281,8.64938374 9.09549281,7.72143067 C9.09549281,6.78479345 9.49053006,5.80048721 10.1264306,5.15261315 C10.3139776,4.96149967 10.6325322,4.94806737 10.8379408,5.12256229 C11.0432823,5.2970572 11.0577193,5.5934424 10.8701723,5.78455588 C10.4039572,6.25962187 10.102727,7.0198899 10.102727,7.72143067 C10.102727,8.41659891 10.3984509,9.17118164 10.8561381,9.64368612 C11.0423422,9.83592416 11.0258235,10.1321844 10.8192062,10.3054298 C10.7229146,10.3861485 10.6023151,10.4259456 10.4821857,10.4259456 Z M11.6416465,9.46744189 C11.177513,8.98825249 10.9698213,8.24360342 10.9698213,7.71830688 C10.9698213,7.18801228 11.1814076,6.43755295 11.6542034,5.95630185 C11.8418847,5.76531333 12.1604392,5.75206846 12.3657136,5.92656337 C12.5709879,6.10118324 12.5852906,6.39750596 12.3976765,6.58855696 C12.1578876,6.83258744 11.9770555,7.31827432 11.9770555,7.7182444 C11.9770555,8.11477831 12.1545301,8.5970915 12.3898872,8.84012237 C12.5760912,9.03236041 12.5595054,9.32862066 12.3528881,9.50186605 C12.2566637,9.58258479 12.1360642,9.6223194 12.0159347,9.6223194 C11.8782122,9.6223194 11.7410941,9.5701521 11.6416465,9.46744189 Z M20.9752155,24.3865383 C21.0611662,24.6326305 20.9163931,24.8969656 20.6518934,24.9769346 C20.6001215,24.9925536 20.5476782,24.9999882 20.4961078,24.9999882 C20.28385,24.9999882 20.0864321,24.8740994 20.0172687,24.6761136 L19.2439143,22.4620962 C18.1958536,21.6787746 16.6596871,21.2306981 14.9998995,21.2306981 C13.3393061,21.2306981 11.8032069,21.6788371 10.7560191,22.4622836 L9.98266467,24.6761136 C9.89671402,24.9222683 9.61267399,25.0569036 9.34804,24.9769346 C9.08360745,24.8969656 8.93883433,24.632568 9.02478498,24.3864758 L9.83312397,22.0724971 C9.83876448,22.0517551 9.84581512,22.0313255 9.85447734,22.0113957 L14.2938284,9.30275567 C13.664307,9.04810431 13.2228027,8.46408052 13.2228027,7.78578074 C13.2228027,6.87407137 14.019995,6.13235866 14.9998995,6.13235866 C15.9797369,6.13235866 16.7769292,6.87407137 16.7769292,7.78578074 C16.7769292,8.46395557 16.3356263,9.04785441 15.7063064,9.30256825 L20.1459261,22.0123954 C20.1540511,22.0312631 20.1606988,22.0505056 20.1660707,22.0700605 L20.9752155,24.3865383 Z M17.0404217,16.153977 L15.000101,10.3129269 L12.959646,16.1540395 C13.6103193,16.0036602 14.3018191,15.9253156 15.0004367,15.9253156 C15.6986514,15.9253156 16.3898827,16.0035977 17.0404217,16.153977 Z M14.9998995,7.06949568 C14.5753839,7.06949568 14.2300369,7.39080873 14.2300369,7.78578074 C14.2300369,8.18075276 14.5753839,8.50206581 14.9998995,8.50206581 C15.424348,8.50206581 15.769695,8.18075276 15.769695,7.78578074 C15.769695,7.39080873 15.424348,7.06949568 14.9998995,7.06949568 Z M14.9998995,20.2936236 C16.3700737,20.2936236 17.6761207,20.5702664 18.7583603,21.0721346 L17.4194775,17.2392441 C16.6803019,16.9934643 15.8486622,16.8624526 15.0004367,16.8624526 C14.1517412,16.8624526 13.3198329,16.9934019 12.5805902,17.2393066 L11.2417745,21.0718846 C12.3236112,20.570204 13.6294567,20.2936236 14.9998995,20.2936236 Z" id="path-1"></path>
    </defs>
    <g id="Icon-/-Alerts" stroke="none" stroke-width="1" fill="none" fill-rule="evenodd">
        <mask id="mask-2" fill="white">
            <use xlink:href="#path-1"></use>
        </mask>
        <use id="Combined-Shape" fill="#000002" fill-rule="nonzero" xlink:href="#path-1"></use>
        <g id="Color-/-Dark-4" mask="url(#mask-2)" fill="#55616E">
            <rect id="Rectangle" x="0" y="0" width="30" height="30"></rect>
        </g>
        <g id="001-technology" mask="url(#mask-2)">
            <g transform="translate(10.000000, 6.000000)"></g>
        </g>
    </g>
</svg>