<?xml version="1.0" encoding="UTF-8"?>
<svg width="30px" height="30px" viewBox="0 0 30 30" version="1.1" xmlns="http://www.w3.org/2000/svg" xmlns:xlink="http://www.w3.org/1999/xlink">
    <!-- Generator: Sketch 50.2 (55047) - http://www.bohemiancoding.com/sketch -->
    <title>Icon / Billing</title>
    <desc>Created with Sketch.</desc>
    <defs>
        <path d="M24.2624044,8.95795211 L9.82234973,8.95795211 L8.99054645,7.0429662 C8.90540984,6.84697183 8.73005464,6.70241127 8.5184153,6.6536 L5.83961749,6.03628732 C5.47240437,5.95140282 5.10464481,6.17458592 5.01830601,6.53430141 C4.93185792,6.89396338 5.1595082,7.25410704 5.52677596,7.33872394 L7.86885246,7.87853803 L13.8646448,21.6829211 C13.6789617,22.0041014 13.5722951,22.3747887 13.5722951,22.769507 C13.5722951,23.9894141 14.5856284,24.9819099 15.8310929,24.9819099 C17.076612,24.9819099 18.0899454,23.9894676 18.0899454,22.769507 C18.0899454,22.4630451 18.0259016,22.1710338 17.9104372,21.9054085 L20.3700546,21.9054085 C20.2545902,22.1709803 20.1905464,22.4629915 20.1905464,22.769507 C20.1905464,23.9894141 21.2039344,24.9819099 22.4495082,24.9819099 C23.6949727,24.9819099 24.7082514,23.9894676 24.7082514,22.769507 C24.7082514,21.549493 23.6949727,20.5570507 22.4495082,20.5570507 L14.8647541,20.5673803 L13.929235,18.4135296 L24.262459,18.4135296 C24.6397268,18.4135296 24.9455191,18.1139718 24.9455191,17.7445155 L24.9455191,9.6269662 C24.9454645,9.25750986 24.6396721,8.95795211 24.2624044,8.95795211 Z M22.4508743,21.8957746 C22.9438251,21.8957746 23.3434426,22.2871211 23.3434426,22.7699352 C23.3434426,23.2526958 22.9438798,23.6440958 22.4508743,23.6440958 C21.9579235,23.6440958 21.5583607,23.2526958 21.5583607,22.7699352 C21.5583607,22.2871211 21.9579235,21.8957746 22.4508743,21.8957746 Z M15.8345355,21.8957746 C16.3274863,21.8957746 16.7271038,22.2871211 16.7271038,22.7699352 C16.7271038,23.2526958 16.3274863,23.6440958 15.8345355,23.6440958 C15.3415847,23.6440958 14.9420219,23.2526958 14.9420219,22.7699352 C14.9420219,22.2871211 15.3416393,21.8957746 15.8345355,21.8957746 Z M23.5793443,13.0167268 L19.0518033,13.0167268 C18.6745902,13.0167268 18.3687432,13.3162845 18.3687432,13.6857408 C18.3687432,14.0551972 18.6745902,14.3547549 19.0518033,14.3547549 L23.5793443,14.3547549 L23.5793443,17.0755014 L13.3481421,17.0755014 L10.4034426,10.2959803 L23.5793443,10.2959803 L23.5793443,13.0167268 Z" id="path-1"></path>
    </defs>
    <g id="Icon-/-Billing" stroke="none" stroke-width="1" fill="none" fill-rule="evenodd">
        <mask id="mask-2" fill="white">
            <use xlink:href="#path-1"></use>
        </mask>
        <use id="Shape" fill="#000000" fill-rule="nonzero" xlink:href="#path-1"></use>
        <g id="Color-/-Dark-4" mask="url(#mask-2)" fill="#55616E">
            <rect id="Rectangle" x="0" y="0" width="30" height="30"></rect>
        </g>
    </g>
</svg>