<?xml version="1.0" encoding="UTF-8"?>
<svg width="30px" height="30px" viewBox="0 0 30 30" version="1.1" xmlns="http://www.w3.org/2000/svg" xmlns:xlink="http://www.w3.org/1999/xlink">
    <!-- Generator: Sketch 50.2 (55047) - http://www.bohemiancoding.com/sketch -->
    <title>Icon / Companies</title>
    <desc>Created with Sketch.</desc>
    <defs>
        <path d="M24.3729268,11.5098362 C24.6872358,11.5098362 24.9420325,11.7664181 24.9420325,12.0830302 C24.9420325,12.3996422 24.6872358,12.656306 24.3729268,12.656306 L23.8378862,12.656306 L23.8378862,24.3593233 C23.8378862,24.6759353 23.5830894,24.9325991 23.2687805,24.9325991 L6.67325203,24.9325991 C6.35894309,24.9325991 6.10414634,24.6759353 6.10414634,24.3593233 L6.10414634,12.656306 L5.56910569,12.656306 C5.25479675,12.656306 5,12.3996422 5,12.0830302 C5,11.7664181 5.25479675,11.5097543 5.56910569,11.5097543 L9.78341463,11.5097543 L9.78341463,6.58220259 C9.78341463,6.26559052 10.0382114,6.00892672 10.3525203,6.00892672 L19.5895122,6.00892672 C19.9038211,6.00892672 20.1586179,6.26559052 20.1586179,6.58220259 L20.1586179,11.5098362 L24.3729268,11.5098362 Z M17.7754472,23.7861293 L17.7754472,22.8598793 L15.5401626,22.8598793 L15.5401626,23.7212672 C15.5401626,23.7432155 15.5386179,23.7648362 15.5362602,23.7861293 L17.7754472,23.7861293 Z M14.4057724,23.7861293 C14.4034146,23.7647543 14.4019512,23.7432155 14.4018699,23.7212672 L14.4018699,22.8598793 L12.1665854,22.8598793 L12.1665854,23.7861293 L14.4057724,23.7861293 Z M18.9136585,23.7861293 L22.6996748,23.7861293 L22.6996748,12.6563879 L7.24235772,12.6563879 L7.24235772,23.7861293 L11.028374,23.7861293 L11.028374,22.2866034 C11.028374,21.9699914 11.2831707,21.7133276 11.5974797,21.7133276 L18.3445528,21.7133276 C18.6588618,21.7133276 18.9136585,21.9699914 18.9136585,22.2866034 L18.9136585,23.7861293 Z M10.921626,7.15547845 L10.921626,11.5097543 L19.0204065,11.5097543 L19.0204065,7.15547845 L10.921626,7.15547845 Z M9.39243902,17.497375 C9.70682927,17.497375 9.96154472,17.7540388 9.96154472,18.0706509 L9.96154472,19.0657759 C9.96154472,19.3823879 9.70674797,19.6390517 9.39243902,19.6390517 C9.07813008,19.6390517 8.82333333,19.3823879 8.82333333,19.0657759 L8.82333333,18.0706509 C8.82333333,17.7540388 9.07813008,17.497375 9.39243902,17.497375 Z M11.6689431,17.497375 C11.9833333,17.497375 12.2380488,17.7540388 12.2380488,18.0706509 L12.2380488,19.0657759 C12.2380488,19.3823879 11.983252,19.6390517 11.6689431,19.6390517 C11.3546341,19.6390517 11.0998374,19.3823879 11.0998374,19.0657759 L11.0998374,18.0706509 C11.0998374,17.7540388 11.3546341,17.497375 11.6689431,17.497375 Z M13.9455285,17.497375 C14.2598374,17.497375 14.5146341,17.7540388 14.5146341,18.0706509 L14.5146341,19.0657759 C14.5146341,19.3823879 14.2598374,19.6390517 13.9455285,19.6390517 C13.6312195,19.6390517 13.3764228,19.3823879 13.3764228,19.0657759 L13.3764228,18.0706509 C13.3764228,17.7540388 13.6312195,17.497375 13.9455285,17.497375 Z M15.9965041,17.497375 C16.310813,17.497375 16.5656098,17.7540388 16.5656098,18.0706509 L16.5656098,19.0657759 C16.5656098,19.3823879 16.310813,19.6390517 15.9965041,19.6390517 C15.6821951,19.6390517 15.4273984,19.3823879 15.4273984,19.0657759 L15.4273984,18.0706509 C15.4273984,17.7540388 15.6821951,17.497375 15.9965041,17.497375 Z M18.2730894,17.497375 C18.5873984,17.497375 18.8421951,17.7540388 18.8421951,18.0706509 L18.8421951,19.0657759 C18.8421951,19.3823879 18.5873984,19.6390517 18.2730894,19.6390517 C17.9587805,19.6390517 17.7039837,19.3823879 17.7039837,19.0657759 L17.7039837,18.0706509 C17.7039837,17.7540388 17.9587805,17.497375 18.2730894,17.497375 Z M20.5495935,17.497375 C20.8639024,17.497375 21.1186992,17.7540388 21.1186992,18.0706509 L21.1186992,19.0657759 C21.1186992,19.3823879 20.8639024,19.6390517 20.5495935,19.6390517 C20.2352846,19.6390517 19.9804878,19.3823879 19.9804878,19.0657759 L19.9804878,18.0706509 C19.9804878,17.7540388 20.2352846,17.497375 20.5495935,17.497375 Z M9.39243902,14.2972672 C9.70682927,14.2972672 9.96154472,14.553931 9.96154472,14.8705431 L9.96154472,15.8656681 C9.96154472,16.1822802 9.70674797,16.438944 9.39243902,16.438944 C9.07813008,16.438944 8.82333333,16.1822802 8.82333333,15.8656681 L8.82333333,14.8705431 C8.82333333,14.553931 9.07813008,14.2972672 9.39243902,14.2972672 Z M11.6689431,14.2972672 C11.9833333,14.2972672 12.2380488,14.553931 12.2380488,14.8705431 L12.2380488,15.8656681 C12.2380488,16.1822802 11.983252,16.438944 11.6689431,16.438944 C11.3546341,16.438944 11.0998374,16.1822802 11.0998374,15.8656681 L11.0998374,14.8705431 C11.0998374,14.553931 11.3546341,14.2972672 11.6689431,14.2972672 Z M13.9455285,14.2972672 C14.2598374,14.2972672 14.5146341,14.553931 14.5146341,14.8705431 L14.5146341,15.8656681 C14.5146341,16.1822802 14.2598374,16.438944 13.9455285,16.438944 C13.6312195,16.438944 13.3764228,16.1822802 13.3764228,15.8656681 L13.3764228,14.8705431 C13.3764228,14.553931 13.6312195,14.2972672 13.9455285,14.2972672 Z M15.9965041,14.2972672 C16.310813,14.2972672 16.5656098,14.553931 16.5656098,14.8705431 L16.5656098,15.8656681 C16.5656098,16.1822802 16.310813,16.438944 15.9965041,16.438944 C15.6821951,16.438944 15.4273984,16.1822802 15.4273984,15.8656681 L15.4273984,14.8705431 C15.4273984,14.553931 15.6821951,14.2972672 15.9965041,14.2972672 Z M18.2730894,14.2972672 C18.5873984,14.2972672 18.8421951,14.553931 18.8421951,14.8705431 L18.8421951,15.8656681 C18.8421951,16.1822802 18.5873984,16.438944 18.2730894,16.438944 C17.9587805,16.438944 17.7039837,16.1822802 17.7039837,15.8656681 L17.7039837,14.8705431 C17.7039837,14.553931 17.9587805,14.2972672 18.2730894,14.2972672 Z M20.5495935,14.2972672 C20.8639024,14.2972672 21.1186992,14.553931 21.1186992,14.8705431 L21.1186992,15.8656681 C21.1186992,16.1822802 20.8639024,16.438944 20.5495935,16.438944 C20.2352846,16.438944 19.9804878,16.1822802 19.9804878,15.8656681 L19.9804878,14.8705431 C19.9804878,14.553931 20.2352846,14.2972672 20.5495935,14.2972672 Z M12.6944715,8.44166379 C13.0087805,8.44166379 13.2635772,8.69832759 13.2635772,9.01493966 L13.2635772,10.0100647 C13.2635772,10.3266767 13.0087805,10.5833405 12.6944715,10.5833405 C12.3801626,10.5833405 12.1253659,10.3266767 12.1253659,10.0100647 L12.1253659,9.01493966 C12.1253659,8.69832759 12.3801626,8.44166379 12.6944715,8.44166379 Z M14.9710569,8.44166379 C15.2853659,8.44166379 15.5401626,8.69832759 15.5401626,9.01493966 L15.5401626,10.0100647 C15.5401626,10.3266767 15.2853659,10.5833405 14.9710569,10.5833405 C14.656748,10.5833405 14.4019512,10.3266767 14.4019512,10.0100647 L14.4019512,9.01493966 C14.4019512,8.69832759 14.656748,8.44166379 14.9710569,8.44166379 Z M17.2476423,8.44166379 C17.5619512,8.44166379 17.816748,8.69832759 17.816748,9.01493966 L17.816748,10.0100647 C17.816748,10.3266767 17.5619512,10.5833405 17.2476423,10.5833405 C16.9333333,10.5833405 16.6785366,10.3266767 16.6785366,10.0100647 L16.6785366,9.01493966 C16.6785366,8.69832759 16.9333333,8.44166379 17.2476423,8.44166379 Z" id="path-1"></path>
    </defs>
    <g id="Icon-/-Companies" stroke="none" stroke-width="1" fill="none" fill-rule="evenodd">
        <mask id="mask-2" fill="white">
            <use xlink:href="#path-1"></use>
        </mask>
        <use id="Combined-Shape" fill="#000000" fill-rule="nonzero" xlink:href="#path-1"></use>
        <g id="Color-/-Dark-4" mask="url(#mask-2)" fill="#55616E">
            <rect id="Rectangle" x="0" y="0" width="30" height="30"></rect>
        </g>
    </g>
</svg>