<?xml version="1.0" encoding="UTF-8"?>
<svg width="30px" height="30px" viewBox="0 0 30 30" version="1.1" xmlns="http://www.w3.org/2000/svg" xmlns:xlink="http://www.w3.org/1999/xlink">
    <!-- Generator: Sketch 50.2 (55047) - http://www.bohemiancoding.com/sketch -->
    <title>Icon / Dashboard</title>
    <desc>Created with Sketch.</desc>
    <defs>
        <path d="M24.7133515,13.5075766 L15.4490463,5.20674095 C15.1919891,4.97649025 14.8079564,4.97649025 14.5509537,5.20674095 L5.2866485,13.5075766 C5.00376022,13.7610585 4.97542234,14.2010585 5.22337875,14.4903621 C5.47133515,14.7794986 5.90179837,14.8085237 6.18468665,14.5549861 L6.90201635,13.912312 L6.90201635,24.2696379 C6.90201635,24.6542061 7.20697548,24.9660167 7.58321526,24.9660167 L12.7457766,24.9660167 L17.2542234,24.9660167 L22.4167302,24.9660167 C22.79297,24.9660167 23.0979292,24.6542061 23.0979292,24.2696379 L23.0979292,13.9123677 L23.8152589,14.5550975 C23.9445777,14.6708635 24.1046866,14.7277994 24.2639782,14.7277994 C24.453406,14.7277994 24.6418529,14.6475209 24.7765123,14.4904178 C25.0246322,14.2010585 24.9962943,13.7611142 24.7133515,13.5075766 Z M13.4269755,23.5733148 L13.4269755,17.8366574 L16.57297,17.8366574 L16.57297,23.5733148 L13.4269755,23.5733148 Z M21.7356403,12.6969916 L21.7356403,23.5732591 L17.9355313,23.5732591 L17.9355313,17.1402786 C17.9355313,16.7557103 17.6304632,16.4438997 17.2543324,16.4438997 L12.7458856,16.4438997 C12.3697003,16.4438997 12.0646866,16.7557103 12.0646866,17.1402786 L12.0646866,23.5733148 L8.26446866,23.5733148 L8.26446866,12.6969916 C8.26446866,12.6952089 8.26425068,12.6935376 8.26425068,12.6918106 L15,6.65643454 L21.7358583,12.6917549 C21.7359128,12.6935933 21.7356403,12.6952089 21.7356403,12.6969916 Z M13.4741144,11.5592201 C13.4741144,11.943844 13.7790736,12.2555989 14.1553134,12.2555989 L15.8446866,12.2555989 C16.2208719,12.2555989 16.5258856,11.943844 16.5258856,11.5592201 C16.5258856,11.1745961 16.2208719,10.8628412 15.8446866,10.8628412 L14.1553134,10.8628412 C13.7791281,10.8628412 13.4741144,11.1745961 13.4741144,11.5592201 Z" id="path-1"></path>
    </defs>
    <g id="Icon-/-Dashboard" stroke="none" stroke-width="1" fill="none" fill-rule="evenodd">
        <mask id="mask-2" fill="white">
            <use xlink:href="#path-1"></use>
        </mask>
        <g id="Combined-Shape" fill-rule="nonzero"></g>
        <g id="Color-/-Dark-4" mask="url(#mask-2)" fill="#55616E">
            <rect id="Rectangle" x="0" y="0" width="30" height="30"></rect>
        </g>
    </g>
</svg>
