<?xml version="1.0" encoding="UTF-8"?>
<svg width="30px" height="30px" viewBox="0 0 30 30" version="1.1" xmlns="http://www.w3.org/2000/svg" xmlns:xlink="http://www.w3.org/1999/xlink">
    <!-- Generator: Sketch 50.2 (55047) - http://www.bohemiancoding.com/sketch -->
    <title>Icon / Delete</title>
    <desc>Created with Sketch.</desc>
    <defs>
        <path d="M22.0359259,7.63839416 L18.7919259,7.63839416 L18.7919259,6.35036496 C18.7919259,5.60576642 18.1771852,5 17.4215556,5 L12.5477037,5 C11.7920741,5 11.1773333,5.60576642 11.1773333,6.35036496 L11.1773333,7.63839416 L7.93333333,7.63839416 C7.42274074,7.63839416 7.00740741,8.04766423 7.00740741,8.55080292 L7.00740741,10.2229927 C7.00740741,10.7261314 7.42274074,11.1354015 7.93333333,11.1354015 L8.47111111,11.1354015 L8.47111111,23.6922628 C8.47111111,24.3966423 9.05266667,24.969635 9.76740741,24.969635 L20.2017778,24.969635 C20.9165185,24.969635 21.4980741,24.3966423 21.4980741,23.6922628 L21.4980741,11.1354745 L22.0359259,11.1354745 C22.5465185,11.1354745 22.9618519,10.7262044 22.9618519,10.2230657 L22.9618519,8.55080292 C22.9618519,8.04773723 22.5464444,7.63839416 22.0359259,7.63839416 Z M12.2884444,6.35036496 C12.2884444,6.21189781 12.4071852,6.09489051 12.5477037,6.09489051 L17.4215556,6.09489051 C17.5620741,6.09489051 17.6808148,6.21189781 17.6808148,6.35036496 L17.6808148,7.63839416 L12.2884444,7.63839416 L12.2884444,6.35036496 Z M20.386963,23.6923358 C20.386963,23.7912409 20.3021481,23.8748175 20.2017778,23.8748175 L9.76740741,23.8748175 C9.66703704,23.8748175 9.58222222,23.7912409 9.58222222,23.6923358 L9.58222222,11.1354745 L20.386963,11.1354745 L20.386963,23.6923358 Z M21.8507407,10.0405839 L8.11851852,10.0405839 L8.11851852,8.73328467 L21.8507407,8.73328467 L21.8507407,10.0405839 Z M11.7328889,22.3270073 C11.426,22.3270073 11.1773333,22.0818978 11.1773333,21.779562 L11.1773333,13.4284672 C11.1773333,13.1261314 11.426,12.8810219 11.7328889,12.8810219 C12.0397037,12.8810219 12.2884444,13.1261314 12.2884444,13.4284672 L12.2884444,21.779562 C12.2884444,22.0818978 12.0397037,22.3270073 11.7328889,22.3270073 Z M14.9846667,22.3270073 C14.6778519,22.3270073 14.4291111,22.0818978 14.4291111,21.779562 L14.4291111,13.4284672 C14.4291111,13.1261314 14.6777778,12.8810219 14.9846667,12.8810219 C15.2915556,12.8810219 15.5402222,13.1261314 15.5402222,13.4284672 L15.5402222,21.779562 C15.5402222,22.0818978 15.2915556,22.3270073 14.9846667,22.3270073 Z M18.2363704,22.3270073 C17.9294815,22.3270073 17.6808148,22.0818978 17.6808148,21.779562 L17.6808148,13.4284672 C17.6808148,13.1261314 17.9294815,12.8810219 18.2363704,12.8810219 C18.5432593,12.8810219 18.7919259,13.1261314 18.7919259,13.4284672 L18.7919259,21.779562 C18.7919259,22.0818978 18.5432593,22.3270073 18.2363704,22.3270073 Z" id="path-1"></path>
    </defs>
    <g id="Icon-/-Delete" stroke="none" stroke-width="1" fill="none" fill-rule="evenodd">
        <mask id="mask-2" fill="white">
            <use xlink:href="#path-1"></use>
        </mask>
        <use id="Combined-Shape" fill="#000002" fill-rule="nonzero" xlink:href="#path-1"></use>
        <g id="Color-/-Dark-4" mask="url(#mask-2)" fill="#55616E">
            <rect id="Rectangle" x="0" y="0" width="30" height="30"></rect>
        </g>
    </g>
</svg>