<?xml version="1.0" encoding="UTF-8"?>
<svg width="30px" height="30px" viewBox="0 0 30 30" version="1.1" xmlns="http://www.w3.org/2000/svg" xmlns:xlink="http://www.w3.org/1999/xlink">
    <!-- Generator: Sketch 50.2 (55047) - http://www.bohemiancoding.com/sketch -->
    <title>Icon / DID</title>
    <desc>Created with Sketch.</desc>
    <defs>
        <path d="M22.8623041,6.4771831 L13.5686636,6.4771831 C13.5290323,6.12976526 13.382765,5.80741784 13.1409217,5.55164319 C12.8413825,5.23474178 12.4369585,5.06028169 12.0023041,5.06028169 L6.67198157,5.06028169 C6.23723502,5.06028169 5.83290323,5.23474178 5.53336406,5.5515493 C5.23382488,5.8684507 5.07788018,6.28666667 5.09410138,6.72929577 L5.36138249,13.9882629 C5.37963134,14.4824413 5.38,15.3179343 5.36221198,15.8126761 L5.09317972,23.3000939 C5.07732719,23.7425352 5.23354839,24.1606573 5.53327189,24.4773709 C5.83290323,24.7940845 6.23732719,24.9684507 6.6718894,24.9684507 L12.0021198,24.9684507 C12.436682,24.9684507 12.841106,24.7940845 13.1407373,24.4773709 C13.3157604,24.2923944 13.4402765,24.0723005 13.5117051,23.8334272 L22.8621198,23.8334272 C24.0056221,23.8334272 24.9358525,22.8857277 24.9358525,21.7207512 L24.9358525,8.58985915 C24.9360369,7.42497653 24.0058065,6.4771831 22.8623041,6.4771831 Z M12.1457143,23.4997183 C12.1197235,23.5271362 12.0737327,23.5599061 12.0023041,23.5599061 L6.67198157,23.5599061 C6.600553,23.5599061 6.55456221,23.5271362 6.52857143,23.4997183 C6.50258065,23.4723005 6.4721659,23.4243192 6.47483871,23.3515493 L6.74387097,15.8641315 C6.76294931,15.3320188 6.76258065,14.4667606 6.74294931,13.9353052 L6.4756682,6.67643192 C6.47299539,6.60384977 6.50322581,6.55596244 6.52912442,6.5286385 C6.55493088,6.50131455 6.60073733,6.46873239 6.67198157,6.46873239 L12.002212,6.46873239 C12.0734562,6.46873239 12.1192627,6.50131455 12.1451613,6.5286385 C12.1709677,6.55605634 12.2011982,6.60384977 12.1986175,6.67643192 L11.9313364,13.9353991 C11.9117972,14.4675117 11.9113364,15.3326761 11.9304147,15.8642254 L12.1993548,23.3516432 C12.2020276,23.4243192 12.1716129,23.4723005 12.1457143,23.4997183 Z M23.5535484,21.7207512 C23.5535484,22.109108 23.2435023,22.4249765 22.8623041,22.4249765 L13.5495853,22.4249765 L13.3120737,15.81277 C13.2942857,15.3185915 13.2947465,14.4830986 13.3129032,13.9882629 L13.5376037,7.8857277 L22.8623963,7.8857277 C23.2435945,7.8857277 23.5536406,8.20159624 23.5536406,8.58995305 L23.5536406,21.7207512 L23.5535484,21.7207512 Z M21.9180645,9.61521127 L14.6610138,9.61521127 C14.2792627,9.61521127 13.9697696,9.93051643 13.9697696,10.3194366 C13.9697696,10.7083568 14.2792627,11.023662 14.6610138,11.023662 L21.9180645,11.023662 C22.2998157,11.023662 22.6093088,10.7083568 22.6093088,10.3194366 C22.6093088,9.93051643 22.2998157,9.61521127 21.9180645,9.61521127 Z M15.6228571,13.0598122 L14.8454378,13.0598122 C14.4636866,13.0598122 14.1541935,13.3751174 14.1541935,13.7640376 C14.1541935,14.1529577 14.4636866,14.4682629 14.8454378,14.4682629 L15.6228571,14.4682629 C16.0046083,14.4682629 16.3141014,14.1529577 16.3141014,13.7640376 C16.3141014,13.3751174 16.0046083,13.0598122 15.6228571,13.0598122 Z M18.6320737,13.0598122 L17.8546544,13.0598122 C17.4729032,13.0598122 17.1634101,13.3751174 17.1634101,13.7640376 C17.1634101,14.1529577 17.4729032,14.4682629 17.8546544,14.4682629 L18.6320737,14.4682629 C19.0138249,14.4682629 19.323318,14.1529577 19.323318,13.7640376 C19.323318,13.3751174 19.0139171,13.0598122 18.6320737,13.0598122 Z M21.6413825,13.0598122 L20.8639631,13.0598122 C20.482212,13.0598122 20.1727189,13.3751174 20.1727189,13.7640376 C20.1727189,14.1529577 20.482212,14.4682629 20.8639631,14.4682629 L21.6413825,14.4682629 C22.0231336,14.4682629 22.3326267,14.1529577 22.3326267,13.7640376 C22.3326267,13.3751174 22.0231336,13.0598122 21.6413825,13.0598122 Z M15.6228571,15.7551174 L14.8454378,15.7551174 C14.4636866,15.7551174 14.1541935,16.0704225 14.1541935,16.4593427 C14.1541935,16.8482629 14.4636866,17.1635681 14.8454378,17.1635681 L15.6228571,17.1635681 C16.0046083,17.1635681 16.3141014,16.8482629 16.3141014,16.4593427 C16.3141014,16.0704225 16.0046083,15.7551174 15.6228571,15.7551174 Z M18.6320737,15.7551174 L17.8546544,15.7551174 C17.4729032,15.7551174 17.1634101,16.0704225 17.1634101,16.4593427 C17.1634101,16.8482629 17.4729032,17.1635681 17.8546544,17.1635681 L18.6320737,17.1635681 C19.0138249,17.1635681 19.323318,16.8482629 19.323318,16.4593427 C19.323318,16.0704225 19.0139171,15.7551174 18.6320737,15.7551174 Z M21.6413825,15.7551174 L20.8639631,15.7551174 C20.482212,15.7551174 20.1727189,16.0704225 20.1727189,16.4593427 C20.1727189,16.8482629 20.482212,17.1635681 20.8639631,17.1635681 L21.6413825,17.1635681 C22.0231336,17.1635681 22.3326267,16.8482629 22.3326267,16.4593427 C22.3326267,16.0704225 22.0231336,15.7551174 21.6413825,15.7551174 Z M15.6228571,18.4505164 L14.8454378,18.4505164 C14.4636866,18.4505164 14.1541935,18.7658216 14.1541935,19.1547418 C14.1541935,19.543662 14.4636866,19.8589671 14.8454378,19.8589671 L15.6228571,19.8589671 C16.0046083,19.8589671 16.3141014,19.543662 16.3141014,19.1547418 C16.3141014,18.7658216 16.0046083,18.4505164 15.6228571,18.4505164 Z M18.6320737,18.4505164 L17.8546544,18.4505164 C17.4729032,18.4505164 17.1634101,18.7658216 17.1634101,19.1547418 C17.1634101,19.543662 17.4729032,19.8589671 17.8546544,19.8589671 L18.6320737,19.8589671 C19.0138249,19.8589671 19.323318,19.543662 19.323318,19.1547418 C19.323318,18.7658216 19.0139171,18.4505164 18.6320737,18.4505164 Z M21.6413825,18.4505164 L20.8639631,18.4505164 C20.482212,18.4505164 20.1727189,18.7658216 20.1727189,19.1547418 C20.1727189,19.543662 20.482212,19.8589671 20.8639631,19.8589671 L21.6413825,19.8589671 C22.0231336,19.8589671 22.3326267,19.543662 22.3326267,19.1547418 C22.3326267,18.7658216 22.0231336,18.4505164 21.6413825,18.4505164 Z" id="path-1"></path>
    </defs>
    <g id="Icon-/-DID" stroke="none" stroke-width="1" fill="none" fill-rule="evenodd">
        <mask id="mask-2" fill="white">
            <use xlink:href="#path-1"></use>
        </mask>
        <use id="Combined-Shape" fill="#000002" fill-rule="nonzero" xlink:href="#path-1"></use>
        <g id="Color-/-Dark-4" mask="url(#mask-2)" fill="#55616E">
            <rect id="Rectangle" x="0" y="0" width="30" height="30"></rect>
        </g>
    </g>
</svg>
