<?xml version="1.0" encoding="UTF-8"?>
<svg width="30px" height="30px" viewBox="0 0 30 30" version="1.1" xmlns="http://www.w3.org/2000/svg" xmlns:xlink="http://www.w3.org/1999/xlink">
    <!-- Generator: Sketch 50.2 (55047) - http://www.bohemiancoding.com/sketch -->
    <title>Icon / Edit</title>
    <desc>Created with Sketch.</desc>
    <defs>
        <path d="M21.0636684,5 L16.5223005,5 C16.0222902,5 15.6155648,5.41380074 15.6155648,5.92250923 L15.6155648,19.7548339 C15.6155648,20.0601476 15.7303938,20.4698893 15.8885285,20.7291513 L18.1395544,24.4204428 C18.2910881,24.6688561 18.5293057,24.8114391 18.793057,24.8114391 C19.0568083,24.8114391 19.2949534,24.6688561 19.4465596,24.420369 L21.6974404,20.7292251 C21.8556477,20.4698155 21.9704767,20.0601476 21.9704767,19.7548339 L21.9704767,5.92250923 C21.9704041,5.41380074 21.5636062,5 21.0636684,5 Z M19.1930363,22.7361624 L18.3929326,22.7361624 L17.1373575,20.6773432 L20.4485389,20.6773432 L19.1930363,22.7361624 Z M16.7035751,19.5703321 L16.7035751,8.61188192 L18.2488705,8.61188192 L18.2488705,19.5703321 L16.7035751,19.5703321 Z M19.3370259,19.5703321 L19.3370259,8.61188192 L20.8823212,8.61188192 L20.8823212,19.5703321 L19.3370259,19.5703321 Z M20.8823212,6.10701107 L20.8823212,7.50487085 L16.7036477,7.50487085 L16.7036477,6.10701107 L20.8823212,6.10701107 Z M16.4717409,23.8886347 C16.7721969,23.8886347 17.0157824,24.1364576 17.0157824,24.4421402 C17.0157824,24.7478229 16.7721969,24.9956458 16.4717409,24.9956458 L8.56943005,24.9956458 C8.26897409,24.9956458 8.0253886,24.7478229 8.0253886,24.4421402 C8.0253886,24.1363838 8.26897409,23.8886347 8.56943005,23.8886347 L16.4717409,23.8886347 Z" id="path-1"></path>
    </defs>
    <g id="Icon-/-Edit" stroke="none" stroke-width="1" fill="none" fill-rule="evenodd">
        <mask id="mask-2" fill="white">
            <use xlink:href="#path-1"></use>
        </mask>
        <use id="Combined-Shape" fill="#000002" fill-rule="nonzero" xlink:href="#path-1"></use>
        <g id="Color-/-Dark-4" mask="url(#mask-2)" fill="#55616E">
            <rect id="Rectangle" x="0" y="0" width="30" height="30"></rect>
        </g>
    </g>
</svg>