<?xml version="1.0" encoding="UTF-8"?>
<svg width="30px" height="30px" viewBox="0 0 30 30" version="1.1" xmlns="http://www.w3.org/2000/svg" xmlns:xlink="http://www.w3.org/1999/xlink">
    <!-- Generator: Sketch 50.2 (55047) - http://www.bohemiancoding.com/sketch -->
    <title>Icon / Filters</title>
    <desc>Created with Sketch.</desc>
    <defs>
        <path d="M24.1572549,6 L21.4976471,6 C21.0435294,6 20.6741176,6.3667623 20.6741176,6.81762295 L20.6741176,8.58555738 L18.3676078,8.58555738 C17.9134902,8.58555738 17.5440784,8.95231967 17.5440784,9.40318033 L17.5440784,11.1711148 L15.2374118,11.1711148 C14.7832941,11.1711148 14.4138824,11.537877 14.4138824,11.9887377 L14.4138824,13.7566721 L12.0838431,13.7566721 C11.6297255,13.7566721 11.2603137,14.1234344 11.2603137,14.5742951 L11.2603137,16.3422295 L8.95364706,16.3422295 C8.49952941,16.3422295 8.13011765,16.7089918 8.13011765,17.1598525 L8.13011765,18.927709 L5.82352941,18.927709 C5.36941176,18.927709 5,19.2944713 5,19.745332 L5,24.1044303 C5,24.5552131 5.36941176,24.9220533 5.82352941,24.9220533 L8.48305882,24.9220533 C8.56486275,24.9220533 8.64376471,24.90975 8.71835294,24.8876352 C8.79294118,24.9098279 8.87184314,24.9220533 8.95364706,24.9220533 L11.6132549,24.9220533 C11.6950588,24.9220533 11.7739608,24.90975 11.848549,24.8876352 C11.9231373,24.9098279 12.0020392,24.9220533 12.0838431,24.9220533 L14.7432941,24.9220533 C14.8294118,24.9220533 14.9122353,24.9088156 14.9902745,24.8843648 C15.0683137,24.9087377 15.1512157,24.9220533 15.2372549,24.9220533 L17.8968627,24.9220533 C17.9786667,24.9220533 18.0575686,24.90975 18.1321569,24.8876352 C18.2067451,24.9098279 18.2856471,24.9220533 18.367451,24.9220533 L21.026902,24.9220533 C21.1087059,24.9220533 21.1876078,24.90975 21.2621961,24.8876352 C21.3367843,24.9098279 21.4156863,24.9220533 21.4974902,24.9220533 L24.157098,24.9220533 C24.6112157,24.9220533 24.9806275,24.5552131 24.9806275,24.1044303 L24.9806275,6.81754508 C24.9807843,6.36684016 24.6113725,6 24.1572549,6 Z M6.17647059,20.0958197 L8.13011765,20.0958197 L8.13011765,23.7540984 L6.17647059,23.7540984 L6.17647059,20.0958197 Z M9.30658824,19.7454098 L9.30658824,17.5103402 L11.2603137,17.5103402 L11.2603137,23.7541762 L9.30658824,23.7541762 L9.30658824,19.7454098 Z M14.3904314,23.7540984 L12.4367843,23.7540984 L12.4367843,17.1598525 L12.4367843,14.9247828 L14.3903529,14.9247828 L14.3903529,23.7540984 L14.3904314,23.7540984 Z M15.5902745,12.3392254 L17.544,12.3392254 L17.544,23.7541762 L15.5902745,23.7541762 L15.5902745,12.3392254 Z M18.7204706,11.9888156 L18.7204706,9.75366803 L20.6740392,9.75366803 L20.6740392,23.7541762 L18.7204706,23.7541762 L18.7204706,11.9888156 Z M23.8043137,23.7540984 L21.8505882,23.7540984 L21.8505882,9.4032582 L21.8505882,7.16803279 L23.8043137,7.16803279 L23.8043137,23.7540984 Z" id="path-1"></path>
    </defs>
    <g id="Icon-/-Filters" stroke="none" stroke-width="1" fill="none" fill-rule="evenodd">
        <mask id="mask-2" fill="white">
            <use xlink:href="#path-1"></use>
        </mask>
        <use id="Shape" fill="#000002" fill-rule="nonzero" transform="translate(14.990314, 15.461027) rotate(-90.000000) translate(-14.990314, -15.461027) " xlink:href="#path-1"></use>
        <g id="Color-/-Dark-4" mask="url(#mask-2)" fill="#55616E">
            <rect id="Rectangle" x="0" y="0" width="30" height="30"></rect>
        </g>
    </g>
</svg>