<?xml version="1.0" encoding="UTF-8"?>
<svg width="30px" height="30px" viewBox="0 0 30 30" version="1.1" xmlns="http://www.w3.org/2000/svg" xmlns:xlink="http://www.w3.org/1999/xlink">
    <!-- Generator: Sketch 50.2 (55047) - http://www.bohemiancoding.com/sketch -->
    <title>Icon / Image</title>
    <desc>Created with Sketch.</desc>
    <defs>
        <path d="M23.7464987,8 L7.25350132,8 C6.56235651,8 6,8.56104486 6,9.25057765 L6,21.7494224 C6,22.4390266 6.56235651,23 7.25350132,23 L23.7464987,23 C24.4376435,23 25,22.4390266 25,21.7494224 L25,9.25057765 C25,8.56104486 24.4377151,8 23.7464987,8 Z M7.25350132,9.0719237 L23.7464987,9.0719237 C23.8435555,9.0719237 23.9255703,9.15374721 23.9255703,9.25057765 L23.9255703,17.5739937 L21.0526885,13.8955803 C20.8395217,13.6226686 20.5275073,13.459093 20.1965829,13.4469445 C19.8657302,13.4345817 19.5424701,13.5749322 19.309677,13.8315508 L15.5821939,17.9414491 C15.4924432,18.040352 15.2933155,18.0676503 15.1800706,17.9966175 L12.1152241,16.0710138 C11.5900429,15.7409327 10.8213959,15.7749484 10.3275163,16.1499788 L7.0744297,18.6199768 L7.0744297,9.25057765 C7.0744297,9.15374721 7.1564445,9.0719237 7.25350132,9.0719237 Z M23.7464987,21.9280763 L7.25350132,21.9280763 C7.1564445,21.9280763 7.0744297,21.8462528 7.0744297,21.7494224 L7.0744297,19.9670276 L10.9782626,17.0029442 C11.1138556,16.9000395 11.3987227,16.8874623 11.542768,16.9780041 L14.6076145,18.9036079 C15.1615905,19.2516972 15.9396208,19.1449336 16.3789193,18.6606385 L20.1064025,14.5507401 C20.1287506,14.5260859 20.1447238,14.5185824 20.1571156,14.5180822 C20.1664989,14.5184395 20.1846926,14.5281582 20.2051784,14.5543846 L23.9255703,19.3178706 L23.9255703,21.7493509 C23.9255703,21.8462528 23.8435555,21.9280763 23.7464987,21.9280763 Z M13.9395341,15.2567091 C12.8902461,15.2567091 12.0366475,14.4050299 12.0366475,13.3582607 C12.0366475,12.3114915 12.8902461,11.4598124 13.9395341,11.4598124 C14.9887505,11.4598124 15.8424207,12.31142 15.8424207,13.3582607 C15.8424207,14.4051014 14.9888222,15.2567091 13.9395341,15.2567091 Z M13.9395341,12.5316646 C13.4826866,12.5316646 13.1110772,12.9024788 13.1110772,13.3581893 C13.1110772,13.8139712 13.4826866,14.1847139 13.9395341,14.1847139 C14.3963816,14.1847139 14.767991,13.8139712 14.767991,13.3581893 C14.767991,12.9024073 14.3963816,12.5316646 13.9395341,12.5316646 Z" id="path-1"></path>
    </defs>
    <g id="Icon-/-Image" stroke="none" stroke-width="1" fill="none" fill-rule="evenodd">
        <mask id="mask-2" fill="white">
            <use xlink:href="#path-1"></use>
        </mask>
        <use id="Combined-Shape" fill="#000002" fill-rule="nonzero" xlink:href="#path-1"></use>
        <g id="Color-/-Dark-4" mask="url(#mask-2)" fill="#55616E">
            <rect id="Rectangle" x="0" y="0" width="30" height="30"></rect>
        </g>
    </g>
</svg>