<?xml version="1.0" encoding="UTF-8"?>
<svg width="30px" height="30px" viewBox="0 0 30 30" version="1.1" xmlns="http://www.w3.org/2000/svg" xmlns:xlink="http://www.w3.org/1999/xlink">
    <!-- Generator: Sketch 50.2 (55047) - http://www.bohemiancoding.com/sketch -->
    <title>Icon / Reporting</title>
    <desc>Created with Sketch.</desc>
    <defs>
        <path d="M24.3333333,22.6234595 L7.1656,22.6234595 L9.95824,16.9509189 L12.8546667,18.8602162 C13.03872,18.9815676 13.2700267,19.0032973 13.47296,18.9181081 C13.6759467,18.8331351 13.8245333,18.6521622 13.8701867,18.4344865 L15.0018133,13.0466486 L18.1837867,14.6959459 C18.4528,14.8354595 18.78064,14.7740541 18.9827733,14.5463784 L21.6315733,11.5637297 L21.71488,12.467027 C21.7470933,12.8172432 22.0377067,13.0799459 22.37792,13.0799459 C22.3986667,13.0799459 22.4196267,13.078973 22.4406933,13.076973 C22.8073067,13.0422703 23.0766933,12.712973 23.0425067,12.3414054 L22.8059733,9.774 C22.7716267,9.40243243 22.4470933,9.12924324 22.0802133,9.16405405 L19.5470933,9.40367568 C19.1805333,9.43837838 18.91104,9.76767568 18.9452267,10.1391892 C18.9796267,10.5107568 19.3035733,10.7838919 19.67104,10.7491351 L20.6428267,10.6571892 L18.33472,13.2562703 L14.8345067,11.442 C14.6498667,11.3462162 14.43168,11.3431351 14.24448,11.4334595 C14.0571733,11.5237838 13.92208,11.6972973 13.87888,11.9029189 L12.7682667,17.1910811 L10.0589333,15.4051351 C9.89962667,15.3001081 9.70362667,15.2689189 9.52037333,15.3195676 C9.33701333,15.3701081 9.18368,15.4975135 9.09893333,15.6697838 L6.33333333,21.2874054 L6.33333333,6.70086486 C6.33333333,6.32767568 6.03482667,6.02518919 5.66666667,6.02518919 C5.29850667,6.02518919 5,6.32767568 5,6.70086486 L5,23.2991351 C5,23.6722703 5.29850667,23.9748108 5.66666667,23.9748108 L24.3333333,23.9748108 C24.70144,23.9748108 25,23.6722703 25,23.2991351 C25,22.926 24.70144,22.6234595 24.3333333,22.6234595 Z" id="path-1"></path>
    </defs>
    <g id="Icon-/-Reporting" stroke="none" stroke-width="1" fill="none" fill-rule="evenodd">
        <mask id="mask-2" fill="white">
            <use xlink:href="#path-1"></use>
        </mask>
        <g id="Shape" fill-rule="nonzero"></g>
        <g id="Color-/-Dark-4" mask="url(#mask-2)" fill="#55616E">
            <rect id="Rectangle" x="0" y="0" width="30" height="30"></rect>
        </g>
    </g>
</svg>