<?xml version="1.0" encoding="UTF-8"?>
<svg width="30px" height="30px" viewBox="0 0 30 30" version="1.1" xmlns="http://www.w3.org/2000/svg" xmlns:xlink="http://www.w3.org/1999/xlink">
    <!-- Generator: Sketch 50.2 (55047) - http://www.bohemiancoding.com/sketch -->
    <title>Icon / Reseller</title>
    <desc>Created with Sketch.</desc>
    <defs>
        <path d="M24.302168,8.01773234 L5.67750678,8.01773234 C5.30336043,8.01773234 5,8.32983271 5,8.71475836 L5,22.2642751 C5,22.649145 5.30336043,22.9613011 5.67750678,22.9613011 L24.302168,22.9613011 C24.6762602,22.9613011 24.9796748,22.649145 24.9796748,22.2642751 L24.9796748,8.71475836 C24.9796748,8.32988848 24.6762602,8.01773234 24.302168,8.01773234 Z M23.6246612,21.5673048 L6.35501355,21.5673048 L6.35501355,9.41178439 L23.6246612,9.41178439 L23.6246612,21.5673048 Z M8.1303523,12.695223 L14.6344173,16.8181041 C14.7433604,16.8871933 14.8665583,16.92171 14.9898103,16.92171 C15.1130623,16.92171 15.2362602,16.8871933 15.3452033,16.8181041 L21.8492683,12.695223 C22.1678049,12.4933086 22.2669919,12.0638848 22.0707317,11.736171 C21.8744715,11.4084572 21.4569648,11.3064126 21.1385366,11.5083829 L14.9898103,15.4059294 L8.84113821,11.5083829 C8.52271003,11.3065799 8.10531165,11.4084015 7.90894309,11.736171 C7.71262873,12.063829 7.81176152,12.4933086 8.1303523,12.695223 Z" id="path-1"></path>
    </defs>
    <g id="Icon-/-Reseller" stroke="none" stroke-width="1" fill="none" fill-rule="evenodd">
        <mask id="mask-2" fill="white">
            <use xlink:href="#path-1"></use>
        </mask>
        <use id="Combined-Shape" fill="#000000" fill-rule="nonzero" xlink:href="#path-1"></use>
        <g id="Color-/-Dark-4" mask="url(#mask-2)" fill="#55616E">
            <rect id="Rectangle" x="0" y="0" width="30" height="30"></rect>
        </g>
    </g>
</svg>