<?xml version="1.0" encoding="UTF-8"?>
<svg width="30px" height="30px" viewBox="0 0 30 30" version="1.1" xmlns="http://www.w3.org/2000/svg" xmlns:xlink="http://www.w3.org/1999/xlink">
    <!-- Generator: Sketch 50.2 (55047) - http://www.bohemiancoding.com/sketch -->
    <title>Icon / Search</title>
    <desc>Created with Sketch.</desc>
    <defs>
        <path d="M24.7180329,23.8340351 L18.9031408,17.887193 C20.34277,16.5231579 21.2410329,14.6104386 21.2410329,12.4938596 C21.2410329,8.36175439 17.8225493,5 13.6205164,5 C9.41848357,5 6,8.36166667 6,12.4938596 C6,16.6259649 9.41848357,19.9877193 13.6205164,19.9877193 C15.1881502,19.9877193 16.6466009,19.519386 17.8593897,18.7180702 L23.7535822,24.7460526 C23.8849765,24.8803509 24.0603474,24.9479825 24.2358967,24.9479825 C24.4027042,24.9479825 24.5697793,24.8870175 24.6994789,24.7642982 C24.9658357,24.5123684 24.9741315,24.0958772 24.7180329,23.8340351 Z M7.33802817,12.4938596 C7.33802817,9.0872807 10.1563615,6.31578947 13.6205164,6.31578947 C17.0846714,6.31578947 19.9030047,9.0872807 19.9030047,12.4938596 C19.9030047,15.9004386 17.0846714,18.6719298 13.6205164,18.6719298 C10.1563615,18.6718421 7.33802817,15.9004386 7.33802817,12.4938596 Z" id="path-1"></path>
    </defs>
    <g id="Icon-/-Search" stroke="none" stroke-width="1" fill="none" fill-rule="evenodd">
        <mask id="mask-2" fill="white">
            <use xlink:href="#path-1"></use>
        </mask>
        <use id="Shape" fill="#000002" fill-rule="nonzero" xlink:href="#path-1"></use>
        <g id="Color-/-Dark-4" mask="url(#mask-2)" fill="#55616E">
            <rect id="Rectangle" x="0" y="0" width="30" height="30"></rect>
        </g>
    </g>
</svg>