<?xml version="1.0" encoding="UTF-8"?>
<svg width="30px" height="30px" viewBox="0 0 30 30" version="1.1" xmlns="http://www.w3.org/2000/svg" xmlns:xlink="http://www.w3.org/1999/xlink">
    <!-- Generator: Sketch 50.2 (55047) - http://www.bohemiancoding.com/sketch -->
    <title>Icon / Send</title>
    <desc>Created with Sketch.</desc>
    <defs>
        <path d="M23.2911397,6.01642237 C23.2857842,6.01772297 23.2803904,6.01879406 23.2750349,6.02024768 L5.42258073,10.8890333 C4.97390338,11.0114052 4.85045878,11.5903285 5.20870444,11.8854899 L10.7649741,16.4629395 L9.7419561,19.5319139 C9.59284327,19.9793229 10.0196778,20.4070315 10.4677813,20.2577294 L13.5367971,19.2347251 L18.1143082,24.7909201 C18.4106977,25.1506145 18.988596,25.0248381 19.1107782,24.5770467 L23.9795911,6.72479437 C23.9811212,6.71917116 23.9822688,6.71347144 23.9836077,6.70780997 C24.0843297,6.28721648 23.7045854,5.91661987 23.2911397,6.01642237 Z M6.79389844,11.7045524 L20.9390361,7.84683605 L11.4372442,15.5299066 L6.79389844,11.7045524 Z M13.3884111,18.0744686 L11.1935683,18.8060985 L11.925208,16.6112852 L19.5704726,10.4292686 L13.3884111,18.0744686 Z M18.2951716,23.2056709 L14.4697277,18.5623876 L22.1529781,9.06068531 L18.2951716,23.2056709 Z" id="path-1"></path>
    </defs>
    <g id="Icon-/-Send" stroke="none" stroke-width="1" fill="none" fill-rule="evenodd">
        <mask id="mask-2" fill="white">
            <use xlink:href="#path-1"></use>
        </mask>
        <use id="Shape" fill="#000000" fill-rule="nonzero" xlink:href="#path-1"></use>
        <g id="Color-/-Dark-4" mask="url(#mask-2)" fill="#55616E">
            <rect id="Rectangle" x="0" y="0" width="30" height="30"></rect>
        </g>
    </g>
</svg>