<?xml version="1.0" encoding="UTF-8"?>
<svg width="30px" height="30px" viewBox="0 0 30 30" version="1.1" xmlns="http://www.w3.org/2000/svg" xmlns:xlink="http://www.w3.org/1999/xlink">
    <!-- Generator: Sketch 50.2 (55047) - http://www.bohemiancoding.com/sketch -->
    <title>Icon / Settings</title>
    <desc>Created with Sketch.</desc>
    <defs>
        <path d="M5.63829787,9.18682589 L8.97744681,9.18682589 C9.26059574,10.2594777 10.2417872,11.0528973 11.405617,11.0528973 C12.5694468,11.0528973 13.5506383,10.2594777 13.8337872,9.18682589 L24.2765957,9.18682589 C24.6291064,9.18682589 24.9148936,8.90199554 24.9148936,8.55066518 C24.9148936,8.19933482 24.6291064,7.91450446 24.2765957,7.91450446 L13.8337021,7.91450446 C13.5505532,6.84185268 12.5693617,6.04843304 11.4055319,6.04843304 C10.2417021,6.04843304 9.26051064,6.84185268 8.9773617,7.91450446 L5.63829787,7.91450446 C5.28578723,7.91450446 5,8.19933482 5,8.55066518 C5,8.90199554 5.28578723,9.18682589 5.63829787,9.18682589 Z M11.405617,7.32075446 C12.0860426,7.32075446 12.6396596,7.87251786 12.6396596,8.55066518 C12.6396596,9.2288125 12.0860426,9.78057589 11.405617,9.78057589 C10.7251915,9.78057589 10.1715745,9.2288125 10.1715745,8.55066518 C10.1715745,7.87251786 10.7251915,7.32075446 11.405617,7.32075446 Z M24.2765957,14.8638393 C24.6291064,14.8638393 24.9149787,15.1486696 24.9149787,15.5 C24.9149787,15.8513304 24.6291915,16.1361607 24.2766809,16.1361607 L20.0222128,16.1361607 C19.7390638,17.2087277 18.7578723,18.0022321 17.5940426,18.0022321 C16.4302128,18.0022321 15.4490213,17.2087277 15.1658723,16.1361607 L5.63829787,16.1361607 C5.28578723,16.1361607 5,15.8513304 5,15.5 C5,15.1486696 5.28578723,14.8638393 5.63829787,14.8638393 L15.1657872,14.8638393 C15.4489362,13.7911875 16.4301277,12.9977679 17.5939574,12.9977679 C18.7577872,12.9977679 19.7389787,13.7911875 20.0221277,14.8638393 L24.2765957,14.8638393 Z M17.5940426,16.7299107 C18.2744681,16.7299107 18.8280851,16.1781473 18.8280851,15.5 C18.8280851,14.8218527 18.2744681,14.2700893 17.5940426,14.2700893 C16.913617,14.2700893 16.36,14.8218527 16.36,15.5 C16.36,16.1781473 16.913617,16.7299107 17.5940426,16.7299107 Z M24.2765957,21.8131741 C24.6291064,21.8131741 24.9148936,22.0980045 24.9148936,22.4493348 C24.9148936,22.8006652 24.6291064,23.0854955 24.2765957,23.0854955 L13.8337872,23.0854955 C13.5506383,24.1581473 12.5694468,24.951567 11.405617,24.951567 C10.2417872,24.951567 9.26059574,24.1581473 8.97744681,23.0854955 L5.63829787,23.0854955 C5.28578723,23.0854955 5,22.8006652 5,22.4493348 C5,22.0980045 5.28578723,21.8131741 5.63829787,21.8131741 L8.9773617,21.8131741 C9.26051064,20.7406071 10.2417021,19.9471027 11.4055319,19.9471027 C12.5693617,19.9471027 13.5505532,20.7406071 13.8337021,21.8131741 L24.2765957,21.8131741 Z M11.405617,23.6792455 C12.0860426,23.6792455 12.6396596,23.1274821 12.6396596,22.4493348 C12.6396596,21.7711875 12.0860426,21.2194241 11.405617,21.2194241 C10.7251915,21.2194241 10.1715745,21.7711875 10.1715745,22.4493348 C10.1715745,23.1274821 10.7251915,23.6792455 11.405617,23.6792455 Z" id="path-1"></path>
    </defs>
    <g id="Icon-/-Settings" stroke="none" stroke-width="1" fill="none" fill-rule="evenodd">
        <mask id="mask-2" fill="white">
            <use xlink:href="#path-1"></use>
        </mask>
        <use id="Combined-Shape" fill="#000002" fill-rule="nonzero" xlink:href="#path-1"></use>
        <g id="Color-/-Dark-4" mask="url(#mask-2)" fill="#55616E">
            <rect id="Rectangle" x="0" y="0" width="30" height="30"></rect>
        </g>
    </g>
</svg>