<?xml version="1.0" encoding="UTF-8"?>
<svg width="30px" height="30px" viewBox="0 0 30 30" version="1.1" xmlns="http://www.w3.org/2000/svg" xmlns:xlink="http://www.w3.org/1999/xlink">
    <!-- Generator: Sketch 50.2 (55047) - http://www.bohemiancoding.com/sketch -->
    <title>Icon / SMS Flow</title>
    <desc>Created with Sketch.</desc>
    <defs>
        <path d="M24.045229,11.5054481 L18.7153792,11.5054481 L18.7153792,7.94701612 C18.7153792,7.42479355 18.2870386,7 17.7604554,7 L5.95492378,7 C5.42834061,7 5,7.42479355 5,7.94701612 L5,15.6881532 C5,16.2103757 5.42834061,16.6351693 5.95492378,16.6351693 L6.68715933,16.6351693 L5.99617648,18.5313986 C5.8744046,18.8655816 5.96118808,19.0945323 6.05545815,19.2276448 C6.17356312,19.394547 6.36882594,19.4942488 6.57783965,19.4942488 C6.73230812,19.4942488 6.88899202,19.4412917 7.04353688,19.3368169 L10.8694963,16.7498719 C10.9487932,16.6963086 11.1484868,16.6351693 11.2443612,16.6351693 L11.2846207,16.6351693 L11.2846207,20.1936771 C11.2846207,20.7158996 11.7129614,21.1406932 12.2395445,21.1406932 L18.755486,21.1406932 C18.8495269,21.1406932 19.0527347,21.2028174 19.1303509,21.25532 L22.9563103,23.8423408 C23.1313287,23.9607557 23.2887002,24 23.4202505,24 C23.6198677,23.9999242 23.7605853,23.9097683 23.8149014,23.8680238 C23.9049698,23.7987023 24.184877,23.5340681 24.0037471,23.0368467 L23.3127642,21.1406932 L24.0450762,21.1406932 C24.5716594,21.1406932 25,20.7158996 25,20.1936771 L25,12.4524642 C25.0001527,11.9302417 24.5717357,11.5054481 24.045229,11.5054481 Z M10.2241206,15.8108865 L7.54620876,17.621657 L7.91251752,16.6163047 C8.01091286,16.346443 7.9779107,16.0652171 7.82206714,15.8451306 C7.66629997,15.6249682 7.41091516,15.4987499 7.12153505,15.4987499 L6.14590853,15.4987499 L6.14590853,8.13641934 L17.5694707,8.13641934 L17.5694707,15.4987499 L11.868041,15.4987499 C11.8645269,15.4986742 11.8611655,15.4982196 11.8576514,15.4982196 C11.8541373,15.4982196 11.850776,15.4986742 11.8472618,15.4987499 L11.2444376,15.4987499 C10.920833,15.4987499 10.4917284,15.6299685 10.2241206,15.8108865 Z M23.8542442,20.0041981 L22.8786177,20.0041981 C22.5892376,20.0041981 22.3338528,20.1304921 22.1780092,20.3505787 C22.0221657,20.570741 21.9892399,20.8518154 22.0875588,21.1217528 L22.4538676,22.1271052 L19.775803,20.3163346 C19.5083479,20.1354924 19.0792434,20.0042738 18.755486,20.0042738 L12.4306821,20.0042738 L12.4306821,16.6351693 L17.7604554,16.6351693 C18.2870386,16.6351693 18.7153792,16.2103757 18.7153792,15.6881532 L18.7153792,12.6418675 L23.8542442,12.6418675 L23.8542442,20.0041981 Z" id="path-1"></path>
    </defs>
    <g id="Icon-/-SMS-Flow" stroke="none" stroke-width="1" fill="none" fill-rule="evenodd">
        <mask id="mask-2" fill="white">
            <use xlink:href="#path-1"></use>
        </mask>
        <use id="Shape" fill="#000002" fill-rule="nonzero" xlink:href="#path-1"></use>
        <g id="Color-/-Dark-4" mask="url(#mask-2)" fill="#55616E">
            <rect id="Rectangle" x="0" y="0" width="30" height="30"></rect>
        </g>
        <g id="002-interface" mask="url(#mask-2)">
            <g transform="translate(6.000000, 7.000000)"></g>
        </g>
    </g>
</svg>