<?xml version="1.0" encoding="UTF-8"?>
<svg width="30px" height="30px" viewBox="0 0 30 30" version="1.1" xmlns="http://www.w3.org/2000/svg" xmlns:xlink="http://www.w3.org/1999/xlink">
    <!-- Generator: Sketch 50.2 (55047) - http://www.bohemiancoding.com/sketch -->
    <title>Icon / Template</title>
    <desc>Created with Sketch.</desc>
    <defs>
        <path d="M21.8241579,6.62015748 L19.3376842,6.62015748 L19.3376842,5.65616798 C19.3376842,5.29375328 19.0431053,5 18.6797895,5 C18.3164737,5 18.0218947,5.29375328 18.0218947,5.65616798 L18.0218947,6.62015748 L15.6534737,6.62015748 L15.6534737,5.65616798 C15.6534737,5.29375328 15.3588947,5 14.9955789,5 C14.6322632,5 14.3376842,5.29375328 14.3376842,5.65616798 L14.3376842,6.62015748 L11.9692632,6.62015748 L11.9692632,5.65616798 C11.9692632,5.29375328 11.6746842,5 11.3113684,5 C10.9480526,5 10.6534737,5.29375328 10.6534737,5.65616798 L10.6534737,6.62015748 L8.167,6.62015748 C7.80368421,6.62015748 7.50910526,6.91396325 7.50910526,7.27632546 L7.50910526,24.3350131 C7.50910526,24.6973753 7.80368421,24.9911811 8.167,24.9911811 L21.8241579,24.9911811 C22.1874737,24.9911811 22.4820526,24.6973753 22.4820526,24.3350131 L22.4820526,7.27632546 C22.4820526,6.91396325 22.1874737,6.62015748 21.8241579,6.62015748 Z M21.1662632,23.6788451 L8.82489474,23.6788451 L8.82489474,7.93249344 L10.6534737,7.93249344 L10.6534737,8.6983727 C10.6534737,9.0607874 10.9480526,9.35454068 11.3113684,9.35454068 C11.6746842,9.35454068 11.9692632,9.0607874 11.9692632,8.6983727 L11.9692632,7.93249344 L14.3376842,7.93249344 L14.3376842,8.6983727 C14.3376842,9.0607874 14.6322632,9.35454068 14.9955789,9.35454068 C15.3588947,9.35454068 15.6534737,9.0607874 15.6534737,8.6983727 L15.6534737,7.93249344 L18.0218947,7.93249344 L18.0218947,8.6983727 C18.0218947,9.0607874 18.3164737,9.35454068 18.6797895,9.35454068 C19.0431053,9.35454068 19.3376842,9.0607874 19.3376842,8.6983727 L19.3376842,7.93249344 L21.1662632,7.93249344 L21.1662632,23.6788451 Z M18.8903158,12.336378 L11.1008421,12.336378 C10.7375263,12.336378 10.4429474,12.6301837 10.4429474,12.9925459 C10.4429474,13.3549081 10.7375263,13.6487139 11.1008421,13.6487139 L18.8903158,13.6487139 C19.2536316,13.6487139 19.5482105,13.3549081 19.5482105,12.9925459 C19.5482105,12.6301837 19.2536316,12.336378 18.8903158,12.336378 Z M18.8903158,16.0109186 L11.1008421,16.0109186 C10.7375263,16.0109186 10.4429474,16.3047769 10.4429474,16.6670866 C10.4429474,17.0294488 10.7375263,17.3232546 11.1008421,17.3232546 L18.8903158,17.3232546 C19.2536316,17.3232546 19.5482105,17.0294488 19.5482105,16.6670866 C19.5482105,16.3047244 19.2536316,16.0109186 18.8903158,16.0109186 Z M18.8903158,19.6854593 L11.1008421,19.6854593 C10.7375263,19.6854593 10.4429474,19.9793176 10.4429474,20.3416273 C10.4429474,20.7039895 10.7375263,20.9977953 11.1008421,20.9977953 L18.8903158,20.9977953 C19.2536316,20.9977953 19.5482105,20.7039895 19.5482105,20.3416273 C19.5482105,19.9792651 19.2536316,19.6854593 18.8903158,19.6854593 Z" id="path-1"></path>
    </defs>
    <g id="Icon-/-Template" stroke="none" stroke-width="1" fill="none" fill-rule="evenodd">
        <mask id="mask-2" fill="white">
            <use xlink:href="#path-1"></use>
        </mask>
        <use id="Combined-Shape" fill="#000000" fill-rule="nonzero" xlink:href="#path-1"></use>
        <g id="Color-/-Dark-4" mask="url(#mask-2)" fill="#55616E">
            <rect id="Rectangle" x="0" y="0" width="30" height="30"></rect>
        </g>
    </g>
</svg>