<?xml version="1.0" encoding="UTF-8"?>
<svg width="30px" height="30px" viewBox="0 0 30 30" version="1.1" xmlns="http://www.w3.org/2000/svg" xmlns:xlink="http://www.w3.org/1999/xlink">
    <!-- Generator: Sketch 50.2 (55047) - http://www.bohemiancoding.com/sketch -->
    <title>Icon / Undo</title>
    <desc>Created with Sketch.</desc>
    <defs>
        <path d="M24.8570085,16.0184789 L23.2528205,13.9230423 C23.0359829,13.6396056 22.7180342,13.4770986 22.3805983,13.4770986 C22.0431624,13.4770986 21.7252137,13.6396901 21.5083761,13.9229577 L19.904188,16.0184789 C19.6905983,16.2976901 19.7461538,16.6951268 20.0284615,16.9063944 C20.3108547,17.1175775 20.712735,17.0625634 20.9264957,16.7836056 L21.8009402,15.6411549 C21.4876923,19.5962535 18.1326496,22.7198028 14.0535043,22.7198028 C9.76837607,22.7198028 6.28205128,19.2727606 6.28205128,15.035831 C6.28205128,10.7988169 9.76837607,7.35177465 14.0535897,7.35177465 C14.9361538,7.35177465 15.8017094,7.49678873 16.6264103,7.78267606 C16.9605128,7.8984507 17.3263248,7.72453521 17.4434188,7.39428169 C17.5605983,7.06402817 17.3847009,6.70233803 17.0505983,6.58647887 C16.0893162,6.2531831 15.0809402,6.08416901 14.0535897,6.08416901 C9.06145299,6.08416901 5,10.0998592 5,15.035831 C5,19.9717183 9.06145299,23.9874085 14.0535897,23.9874085 C18.7886325,23.9874085 22.6857265,20.3745634 23.0747009,15.7906479 L23.8347863,16.7836056 C23.9609402,16.9481408 24.1524786,17.0349296 24.3464103,17.0348451 C24.4811111,17.0348451 24.6170085,16.9930141 24.732735,16.9063944 C25.0150427,16.6951268 25.0705983,16.2976901 24.8570085,16.0184789 Z" id="path-1"></path>
    </defs>
    <g id="Icon-/-Undo" stroke="none" stroke-width="1" fill="none" fill-rule="evenodd">
        <mask id="mask-2" fill="white">
            <use xlink:href="#path-1"></use>
        </mask>
        <use id="Shape" fill="#000002" fill-rule="nonzero" xlink:href="#path-1"></use>
        <g id="Color-/-Dark-4" mask="url(#mask-2)" fill="#55616E">
            <rect id="Rectangle" x="0" y="0" width="30" height="30"></rect>
        </g>
    </g>
</svg>