<?xml version="1.0" encoding="UTF-8"?>
<svg width="30px" height="30px" viewBox="0 0 30 30" version="1.1" xmlns="http://www.w3.org/2000/svg" xmlns:xlink="http://www.w3.org/1999/xlink">
    <!-- Generator: Sketch 50.2 (55047) - http://www.bohemiancoding.com/sketch -->
    <title>Icon / Users</title>
    <desc>Created with Sketch.</desc>
    <defs>
        <path d="M19.3070588,15.3745636 L18.5167157,15.3745636 C20.0434804,14.3694763 21.0561275,12.6217456 21.0561275,10.6378055 C21.0561275,7.52907731 18.5704412,5 15.515049,5 C12.4596569,5 9.97397059,7.52907731 9.97397059,10.6378055 C9.97397059,12.6217456 10.9865196,14.3694763 12.5133824,15.3745636 L11.7230392,15.3745636 C9.69196078,15.3745636 8.03955882,17.0557107 8.03955882,19.1222444 L8.03955882,24.3573067 C8.03955882,24.7016459 8.31392157,24.9807481 8.65230392,24.9807481 L22.3777941,24.9807481 C22.7161765,24.9807481 22.9905392,24.7016459 22.9905392,24.3573067 L22.9905392,19.1221945 C22.9905392,17.0557107 21.3381373,15.3745636 19.3070588,15.3745636 Z M11.1994608,10.6378055 C11.1994608,8.21665835 13.1353922,6.24688279 15.515049,6.24688279 C17.8946569,6.24688279 19.8306373,8.21665835 19.8306373,10.6378055 C19.8306373,13.0589027 17.8946569,15.0286284 15.515049,15.0286284 C13.1353922,15.0286284 11.1994608,13.0589027 11.1994608,10.6378055 Z M17.3078431,15.9724688 L15.515049,17.7966085 L13.7222549,15.9725187 C14.2848529,16.1687781 14.8878922,16.2755112 15.515049,16.2755112 C16.1422059,16.2755112 16.7452941,16.1687781 17.3078431,15.9724688 Z M21.765049,23.7338155 L20.0983824,23.7338155 L20.0983824,20.7383541 C20.0983824,20.394015 19.8240196,20.1149127 19.4856373,20.1149127 C19.1472549,20.1149127 18.8728922,20.394015 18.8728922,20.7383541 L18.8728922,23.7338155 L12.1572059,23.7338155 L12.1572059,20.7383541 C12.1572059,20.394015 11.8828431,20.1149127 11.5444608,20.1149127 C11.2060784,20.1149127 10.9317157,20.394015 10.9317157,20.7383541 L10.9317157,23.7338155 L9.26504902,23.7338155 L9.26504902,19.1221945 C9.26504902,17.7432918 10.3676961,16.6213965 11.7230392,16.6213965 L12.6269118,16.6213965 L15.0817647,19.1190524 C15.2014216,19.240798 15.3582353,19.3016459 15.515049,19.3016459 C15.6718627,19.3016459 15.8285784,19.240798 15.9483333,19.1190524 L18.4031863,16.6213965 L19.3070588,16.6213965 C20.6623529,16.6213965 21.765049,17.743192 21.765049,19.1221945 L21.765049,23.7338155 Z" id="path-1"></path>
    </defs>
    <g id="Icon-/-Users" stroke="none" stroke-width="1" fill="none" fill-rule="evenodd">
        <mask id="mask-2" fill="white">
            <use xlink:href="#path-1"></use>
        </mask>
        <use id="Shape" fill="#000000" fill-rule="nonzero" xlink:href="#path-1"></use>
        <g id="Color-/-Dark-4" mask="url(#mask-2)" fill="#55616E">
            <rect id="Rectangle" x="0" y="0" width="30" height="30"></rect>
        </g>
    </g>
</svg>