<?xml version="1.0" encoding="UTF-8"?>
<svg width="30px" height="30px" viewBox="0 0 30 30" version="1.1" xmlns="http://www.w3.org/2000/svg" xmlns:xlink="http://www.w3.org/1999/xlink">
    <!-- Generator: Sketch 50.2 (55047) - http://www.bohemiancoding.com/sketch -->
    <title>Icon / Vendors</title>
    <desc>Created with Sketch.</desc>
    <defs>
        <path d="M21.4696919,6.01274052 L8.50140056,6.01274052 C6.57070028,6.01274052 5,7.56586589 5,9.47489504 L5,17.3839913 C5,19.2930204 6.57070028,20.8460904 8.50140056,20.8460904 L16.7615126,20.8461458 L20.7156303,24.7558251 C20.8496359,24.8883819 21.0286835,24.9586764 21.2109804,24.9586764 C21.3011765,24.9586764 21.3921569,24.9413936 21.4787675,24.9058863 C21.7404482,24.7987551 21.9110924,24.5463819 21.9110924,24.2662566 L21.9110924,20.8187259 C23.6342857,20.6035219 24.9710924,19.1452303 24.9710924,17.3839913 L24.9710924,9.47489504 C24.9710924,7.56586589 23.4003922,6.01274052 21.4696919,6.01274052 Z M23.5705322,17.3840466 C23.5705322,18.5294752 22.6281232,19.4613061 21.4696919,19.4613061 L21.2108123,19.4613061 C20.8240896,19.4613061 20.5105322,19.7713994 20.5105322,20.1537259 L20.5105322,22.5945889 L17.5467787,19.664102 C17.4154622,19.5342041 17.237423,19.4613061 17.0515966,19.4613061 L8.50140056,19.4613061 C7.34296919,19.4613061 6.40056022,18.5294752 6.40056022,17.3840466 L6.40056022,9.47495044 C6.40056022,8.32952187 7.34296919,7.39769096 8.50140056,7.39769096 L21.4696919,7.39769096 C22.6281232,7.39769096 23.5705322,8.32952187 23.5705322,9.47495044 L23.5705322,17.3840466 Z M20.1396078,10.915793 L9.83148459,10.915793 C9.4447619,10.915793 9.13120448,11.2257755 9.13120448,11.6082128 C9.13120448,11.9905948 9.4447619,12.3006327 9.83148459,12.3006327 L20.1396078,12.3006327 C20.5263305,12.3006327 20.839888,11.9905948 20.839888,11.6082128 C20.839888,11.2257755 20.5263866,10.915793 20.1396078,10.915793 Z M20.1396078,14.793344 L9.83148459,14.793344 C9.4447619,14.793344 9.13120448,15.1033265 9.13120448,15.4857638 C9.13120448,15.8682012 9.4447619,16.1781837 9.83148459,16.1781837 L20.1396078,16.1781837 C20.5263305,16.1781837 20.839888,15.8681458 20.839888,15.4857638 C20.839888,15.1033819 20.5263866,14.793344 20.1396078,14.793344 Z" id="path-1"></path>
    </defs>
    <g id="Icon-/-Vendors" stroke="none" stroke-width="1" fill="none" fill-rule="evenodd">
        <mask id="mask-2" fill="white">
            <use xlink:href="#path-1"></use>
        </mask>
        <use id="Combined-Shape" fill="#000000" fill-rule="nonzero" xlink:href="#path-1"></use>
        <g id="Color-/-Dark-4" mask="url(#mask-2)" fill="#55616E">
            <rect id="Rectangle" x="0" y="0" width="30" height="30"></rect>
        </g>
    </g>
</svg>