<?xml version="1.0" encoding="UTF-8"?>
<svg width="35px" height="30px" viewBox="0 0 35 30" version="1.1" xmlns="http://www.w3.org/2000/svg" xmlns:xlink="http://www.w3.org/1999/xlink">
    <!-- Generator: sketchtool 50 (54983) - http://www.bohemiancoding.com/sketch -->
    <title>1BCBA079-E218-4CE7-A846-2112C9A1A6DF</title>
    <desc>Created with sketchtool.</desc>
    <defs></defs>
    <g id="Company-Admin" stroke="none" stroke-width="1" fill="none" fill-rule="evenodd">
        <g id="03-Company-Admin---0011-Dids---05-Call-flow---b.-Create" transform="translate(-345.000000, -1595.000000)">
            <g id="Wizard-Content" transform="translate(320.000000, 305.000000)">
                <g id="Simulcall" transform="translate(0.000000, 1278.000000)">
                    <g id="Circle-button">
                        <g transform="translate(15.000000, 0.000000)">
                            <g id="telephone-of-old-design" transform="translate(10.000000, 12.000000)">
                                <path d="M10.774302,9.64814387 C10.7896146,9.69613141 10.8083497,9.72442409 10.8443603,9.77880535 C10.901167,9.85535364 10.901167,9.85535364 10.9375759,9.8924952 L10.7825473,9.66676897 C10.7779843,9.65650728 10.7771439,9.65461719 10.774302,9.64814387 Z M28.6572911,17.6552483 C26.0369929,16.9325014 23.47419,15.4462867 22.4580607,13.7782072 C21.7396658,12.605901 21.6536459,11.2526949 22.2387716,10.0806725 L12.7746783,10.0806725 C13.3596223,11.252826 13.2758089,12.6029534 12.5588735,13.777964 C11.5391524,15.4491736 8.97660313,16.9348505 6.35489123,17.6573521 L5.75470467,27.7223767 C5.7098468,28.4804747 6.16095191,29.0430016 6.70169492,29.0430016 L28.3115364,29.0430016 C28.8515818,29.0430016 29.3020886,28.4803647 29.2565741,27.7226419 L28.6572911,17.6552483 Z M22.2729751,10.0148696 C22.2899999,9.98386448 22.3091591,9.95090075 22.3387671,9.90082708 C22.3400077,9.89873115 22.3400077,9.89873115 22.3412409,9.89664851 C22.3633172,9.85942387 22.3633172,9.85942387 22.3808154,9.82964184 L22.8111536,10.0806725 L22.2712831,10.0806725 C22.2714347,10.0588881 22.2719991,10.0369562 22.2729751,10.0148696 Z M11.5333516,9.29671952 L12.1434867,9.03523302 C12.1465572,9.04239424 12.1465572,9.04239424 12.1472222,9.04392824 C12.1472496,9.04399121 12.1472496,9.04399121 12.1472592,9.04401318 C12.148063,9.0458514 12.148063,9.0458514 12.1532646,9.05756127 L11.467906,9.36216512 L11.5333516,9.29671952 Z M12.1324698,9.00960745 C12.1706382,9.07569306 12.1792648,9.12726127 12.2188901,9.36413341 L11.4688901,9.36413341 L12.1002643,8.95932892 C12.1111449,8.97629951 12.1218793,8.99305764 12.1324698,9.00960745 Z M17.5339311,5.98160897 L17.5071077,5.98177881 L17.4806694,5.98161141 C17.4557093,5.98167936 17.447742,5.98173752 17.4113067,5.98200348 L17.4036905,5.98206041 C17.3553287,5.98242121 17.3553287,5.98242121 17.3127392,5.98253144 L17.3127392,5.98300951 L16.9514762,5.98529695 L16.9514762,6.73253144 L18.0627392,6.73253144 L18.0627392,5.98529695 L17.7014762,5.98300951 L17.7014762,5.98253144 C17.6588848,5.9824212 17.6588848,5.9824212 17.6103809,5.98206025 L17.5937206,5.98193718 C17.5622263,5.98171899 17.5539901,5.98166193 17.5339311,5.98160897 Z M17.5071077,5.98177881 L17.3127392,5.98300951 L17.3127392,6.73253144 L17.7014762,6.73253144 L17.7014762,5.98300951 L17.5071077,5.98177881 Z M17.5071815,1.02613121 L18.0627392,1.01617011 L18.0627392,0.267687261 L16.9514762,0.267687261 L16.9514762,1.01615933 L17.5071815,1.02613121 Z" id="Shape" stroke="#FFFFFF" stroke-width="1.5" fill-rule="nonzero"></path>
                                <path d="M13.9745216,24.3723346 L11.945216,24.3723346 C11.5712411,24.3723346 11.2681247,24.068234 11.2681247,23.6952433 C11.2681247,23.3222526 11.5712411,23.018152 11.945216,23.018152 L13.9745216,23.018152 C14.3475123,23.018152 14.6516129,23.3222526 14.6516129,23.6952433 C14.6516129,24.068234 14.3475123,24.3723346 13.9745216,24.3723346 Z M13.9745216,21.7919081 L11.945216,21.7919081 C11.5712411,21.7919081 11.2681247,21.4887917 11.2681247,21.115801 C11.2681247,20.7398578 11.5712411,20.4387097 11.945216,20.4387097 L13.9745216,20.4387097 C14.3475123,20.4387097 14.6516129,20.7398578 14.6516129,21.115801 C14.6516129,21.4887917 14.3475123,21.7919081 13.9745216,21.7919081 Z M13.9745216,19.2114817 L11.945216,19.2114817 C11.5712411,19.2114817 11.2681247,18.9083652 11.2681247,18.5343904 C11.2681247,18.1613997 11.5712411,17.8572991 11.945216,17.8572991 L13.9745216,17.8572991 C14.3475123,17.8572991 14.6516129,18.1613997 14.6516129,18.5343904 C14.6516129,18.9073811 14.3475123,19.2114817 13.9745216,19.2114817 Z M18.5222526,24.3723346 L16.4939311,24.3723346 C16.1199563,24.3723346 15.8168398,24.068234 15.8168398,23.6952433 C15.8168398,23.3222526 16.1209404,23.018152 16.4939311,23.018152 L18.5232367,23.018152 C18.8962274,23.018152 19.200328,23.3222526 19.200328,23.6952433 C19.1983598,24.068234 18.8952433,24.3723346 18.5222526,24.3723346 Z M18.5222526,21.7919081 L16.4939311,21.7919081 C16.1199563,21.7919081 15.8168398,21.4887917 15.8168398,21.115801 C15.8168398,20.7398578 16.1209404,20.4387097 16.4939311,20.4387097 L18.5232367,20.4387097 C18.8962274,20.4387097 19.200328,20.7398578 19.200328,21.115801 C19.1983598,21.4887917 18.8952433,21.7919081 18.5222526,21.7919081 Z M18.5222526,19.2114817 L16.4939311,19.2114817 C16.1199563,19.2114817 15.8168398,18.9083652 15.8168398,18.5343904 C15.8168398,18.1613997 16.1209404,17.8572991 16.4939311,17.8572991 L18.5232367,17.8572991 C18.8962274,17.8572991 19.200328,18.1613997 19.200328,18.5343904 C19.1983598,18.9073811 18.8952433,19.2114817 18.5222526,19.2114817 Z M23.0689995,24.3723346 L21.0396938,24.3723346 C20.6667031,24.3723346 20.3635867,24.068234 20.3635867,23.6952433 C20.3635867,23.3222526 20.6667031,23.018152 21.0396938,23.018152 L23.0689995,23.018152 C23.4439584,23.018152 23.7460908,23.3222526 23.7460908,23.6952433 C23.7460908,24.068234 23.4449426,24.3723346 23.0689995,24.3723346 Z M23.0689995,21.7919081 L21.0396938,21.7919081 C20.6667031,21.7919081 20.3635867,21.4887917 20.3635867,21.115801 C20.3635867,20.7398578 20.6667031,20.4387097 21.0396938,20.4387097 L23.0689995,20.4387097 C23.4439584,20.4387097 23.7460908,20.7398578 23.7460908,21.115801 C23.7460908,21.4887917 23.4449426,21.7919081 23.0689995,21.7919081 Z M23.0689995,19.2114817 L21.0396938,19.2114817 C20.6667031,19.2114817 20.3635867,18.9083652 20.3635867,18.5343904 C20.3635867,18.1613997 20.6667031,17.8572991 21.0396938,17.8572991 L23.0689995,17.8572991 C23.4439584,17.8572991 23.7460908,18.1613997 23.7460908,18.5343904 C23.7460908,18.9073811 23.4449426,19.2114817 23.0689995,19.2114817 Z" id="Combined-Shape" fill="#FFFFFF"></path>
                            </g>
                        </g>
                    </g>
                </g>
            </g>
        </g>
    </g>
</svg>