<?xml version="1.0" encoding="UTF-8"?>
<svg width="32px" height="30px" viewBox="0 0 32 30" version="1.1" xmlns="http://www.w3.org/2000/svg" xmlns:xlink="http://www.w3.org/1999/xlink">
    <!-- Generator: sketchtool 50 (54983) - http://www.bohemiancoding.com/sketch -->
    <title>1755AF73-B257-46E4-A88F-DB2DC4EC64EF</title>
    <desc>Created with sketchtool.</desc>
    <defs></defs>
    <g id="Company-Admin" stroke="none" stroke-width="1" fill="none" fill-rule="evenodd">
        <g id="03-Company-Admin---0011-Dids---05-Call-flow---b.-Create" transform="translate(-346.000000, -611.000000)">
            <g id="Wizard-Content" transform="translate(320.000000, 305.000000)">
                <g id="Greeting" transform="translate(0.000000, 173.000000)">
                    <g transform="translate(0.000000, 121.000000)" id="Circle-button">
                        <g transform="translate(15.000000, 0.000000)">
                            <g id="icon--conversation" transform="translate(11.000000, 12.000000)">
                                <path d="M31.25,13.9172814 C31.25,6.672798 24.4410278,0.75 16,0.75 C7.55897218,0.75 0.75,6.672798 0.75,13.9172814 C0.75,16.7162869 1.76166664,19.3779082 3.62330006,21.6046209 C4.40339287,22.5373107 4.78726221,23.7348292 4.6477264,24.9033811 C4.47765319,26.3299681 3.62497752,27.642961 2.02076721,28.763238 C1.82947102,28.8969925 1.92060972,29.2140316 2.16084198,29.2284006 C4.86329986,29.3902683 8.13496536,28.6928887 11.96316,26.7828564 L12.1965639,26.6664023 L12.451859,26.719913 C13.6050082,26.9616168 14.7917672,27.0845627 16,27.0845627 C24.4410278,27.0845627 31.25,21.1617647 31.25,13.9172814 Z" id="Shape" stroke="#FFFFFF" stroke-width="1.5" fill-rule="nonzero"></path>
                                <path d="M8.75,10 L21.25,10 C21.6642136,10 22,10.3357864 22,10.75 C22,11.1642136 21.6642136,11.5 21.25,11.5 L8.75,11.5 C8.33578644,11.5 8,11.1642136 8,10.75 C8,10.3357864 8.33578644,10 8.75,10 Z M8.75,13.5 L23.25,13.5 C23.6642136,13.5 24,13.8357864 24,14.25 C24,14.6642136 23.6642136,15 23.25,15 L8.75,15 C8.33578644,15 8,14.6642136 8,14.25 C8,13.8357864 8.33578644,13.5 8.75,13.5 Z M8.75,17 L19.25,17 C19.6642136,17 20,17.3357864 20,17.75 C20,18.1642136 19.6642136,18.5 19.25,18.5 L8.75,18.5 C8.33578644,18.5 8,18.1642136 8,17.75 C8,17.3357864 8.33578644,17 8.75,17 Z" id="Combined-Shape" fill="#FFFFFF"></path>
                            </g>
                        </g>
                    </g>
                </g>
            </g>
        </g>
    </g>
</svg>