<?xml version="1.0" encoding="UTF-8"?>
<svg width="30.00000000000000" height="30.00000000000000" xmlns="http://www.w3.org/2000/svg" xmlns:svg="http://www.w3.org/2000/svg">
 <title>4880E3F4-03B0-41E9-B9CA-F899F64B917C</title>
 <desc>Created with sketchtool.</desc>

 <g>
  <title>Layer 1</title>
  <g fill-rule="evenodd" fill="none" id="Symbols">
   <g fill-rule="nonzero" fill="#70828B" id="Elements-/-Steps-Pane">
    <g id="Steps-Pane">
     <g id="1-copy-4">
      <g id="icon--recently-completed-copy">
       <path fill="#ffffff" id="Shape" d="m14.60156,0c3.80006,0 7.25423,1.45833 9.84967,3.8393l2.9267,-2.9267l0,6.38818c0,1.00842 -0.81676,1.8252 -1.8252,1.8252l-6.38818,0l3.99354,-3.99353c-2.26599,-2.05243 -5.26571,-3.30725 -8.55653,-3.30725c-7.04524,0 -12.77637,5.73111 -12.77637,12.77637c0,7.04526 5.73113,12.77637 12.77637,12.77637c7.04524,0 12.77637,-5.73111 12.77637,-12.77637c0,-0.93997 -0.1095,-1.8544 -0.30298,-2.73779l1.86263,0c0.16883,0.88797 0.26555,1.80147 0.26555,2.73779c0,8.06462 -6.53692,14.60156 -14.60156,14.60156c-8.06464,0 -14.60156,-6.53694 -14.60156,-14.60156c0,-8.06463 6.53693,-14.60156 14.60156,-14.60156z"/>
       <polygon fill="#ffffff" points="21.810165192324348,20.611935725566582 14.601562779396772,13.40241055055867 14.601562779396772,7.300780922240392 12.776367431972176,7.300780922240392 12.776367431972176,14.548628771061885 12.773635607454707,14.551371814571212 20.32264841100732,22.100376203879932 " id="Shape"/>
      </g>
     </g>
    </g>
   </g>
  </g>
 </g>
</svg>
