<?xml version="1.0" encoding="UTF-8"?>
<svg width="70px" height="50px" viewBox="0 0 70 50" version="1.1" xmlns="http://www.w3.org/2000/svg" xmlns:xlink="http://www.w3.org/1999/xlink">
    <!-- Generator: sketchtool 50 (54983) - http://www.bohemiancoding.com/sketch -->
    <title>78CFBB6C-2ECA-40C6-A4B4-4027DC422705</title>
    <desc>Created with sketchtool.</desc>
    <defs></defs>
    <g id="Symbols" stroke="none" stroke-width="1" fill="none" fill-rule="evenodd">
        <g id="Elements-/-Steps-Pane" transform="translate(-315.000000, -264.000000)">
            <g id="Steps-Pane">
                <g id="1-copy-6" transform="translate(280.000000, 244.000000)">
                    <g id="voicemail" transform="translate(35.000000, 20.000000)">
                        <rect id="Rectangle" stroke="#70828B" stroke-width="3" x="1.5" y="1.5" width="67" height="47" rx="8"></rect>
                        <path d="M44.5909091,17 C39.9545455,17 36.0909091,20.8636364 36.0909091,25.5 C36.0909091,27.5090909 36.8636364,29.3636364 38.1,30.9090909 L30.9909091,30.9090909 C32.2272727,29.3636364 33,27.5090909 33,25.5 C33,20.8636364 29.1363636,17 24.5,17 C19.8636364,17 16,20.8636364 16,25.5 C16,30.1363636 19.8636364,34 24.5,34 L44.5909091,34 C49.2272727,34 53.0909091,30.1363636 53.0909091,25.5 C53.0909091,20.8636364 49.2272727,17 44.5909091,17 Z M24.5,30.9090909 C21.5636364,30.9090909 19.0909091,28.4363636 19.0909091,25.5 C19.0909091,22.5636364 21.5636364,20.0909091 24.5,20.0909091 C27.4363636,20.0909091 29.9090909,22.5636364 29.9090909,25.5 C29.9090909,28.4363636 27.4363636,30.9090909 24.5,30.9090909 Z M44.5909091,30.9090909 C41.6545455,30.9090909 39.1818182,28.4363636 39.1818182,25.5 C39.1818182,22.5636364 41.6545455,20.0909091 44.5909091,20.0909091 C47.5272727,20.0909091 50,22.5636364 50,25.5 C50,28.4363636 47.5272727,30.9090909 44.5909091,30.9090909 Z" id="Shape" fill="#70828B" fill-rule="nonzero"></path>
                    </g>
                </g>
            </g>
        </g>
    </g>
</svg>